<?xml version="1.0" encoding="utf-8"?>
<!-- Generator: Adobe Illustrator 22.0.0, SVG Export Plug-In . SVG Version: 6.00 Build 0)  -->
<svg version="1.1" id="Capa_1" xmlns="http://www.w3.org/2000/svg" xmlns:xlink="http://www.w3.org/1999/xlink" x="0px" y="0px"
	 viewBox="0 0 500 510" style="enable-background:new 0 0 500 510;" xml:space="preserve">
<style type="text/css">
	.st0{opacity:0.4;}
	.st1{fill:#80ACFF;}
	.st2{opacity:0.6;}
	.st3{fill:none;}
</style>
<g>
	<g>
		<g>
			<g>
				<g class="st0">
					<g>
						<g>
							<path class="st1" d="M420.5,339.6l14.5,15.1c2.8,2.9,7.7,2.6,9.9-0.8c25.7-38.3,39.1-83.8,37.6-131.2
								C478.5,99.7,375.1,3,252.1,7c-8.4,0.3-17,1-25.4,2.3C124.4,24.1,44.6,109.6,36.9,212.7c-4.2,56.1,12.4,110.1,45.6,153.2
								c2.5,3.2,7.3,3.2,10,0.1l13.5-16c1.9-2.3,2-5.5,0.2-7.9c-23.5-32-36.5-70.7-36.7-111.4C69,132,145.8,48.5,244.1,40.7
								c108.8-8.9,201.7,75.4,205.2,183.1c1.3,38.5-9.3,76-29.6,107.9C418.2,334.3,418.4,337.5,420.5,339.6z"/>
						</g>
					</g>
				</g>
				<g class="st2">
					<g>
						<g>
							<path class="st1" d="M368.1,281.9l17.4,18.1c3.5,3.7,9.7,2.6,11.9-2c9.9-21.2,14.7-44.4,13.9-68.3
								c-2.4-71.4-55.1-132.1-125.4-144.5c-20.5-3.6-41.9-2.9-62.2,2.1c-69.4,16.9-118,81-115.6,152.4c0.8,24,7.1,46.7,18.3,67.3
								c2.5,4.5,8.7,5.2,12,1.2l16.1-19.2c1.8-2.2,2.2-5.1,1-7.7c-6.1-13.5-9.5-28-10-42.9c-1.6-47.7,27.2-91.9,71.6-109.8
								c24.8-10,52.9-10.9,78.2-2.6c45.4,15,77,57.1,78.6,104.8c0.5,14.8-2,29.6-7.1,43.4C365.7,277,366.2,279.9,368.1,281.9z"/>
						</g>
					</g>
				</g>
			</g>
		</g>
	</g>
	<path class="st1" d="M391.5,423.5l-2-62.3c-0.1-4.2-1.5-18.4-13.6-22.3c-5.8-1.9-11.2-0.9-15.7,1.3l-1.1,0.1h-0.3
		c-2.3-7.7-7.7-12.6-15.4-13.7c-9.3-1.3-15.6,1.7-19.4,4.6c-4.1-8.1-11.9-12.2-22.3-10.9c-7.8,0.9-13.5,4.9-17.5,10.1l-1.7-53.1
		c-0.3-10.4-1-20.9-1-31.3c-1.3-11-10.7-19.5-22-19.5c-6.4,0-12.8,3.2-17,7.9c-4.5,5-4.8,11.3-4.8,17.7v25.5l0.1,70.6
		c-0.4,2.2,0.9,51.2,0.9,51.2c-4.3-4.1-9.1-8.8-13.4-13.3c-10-10.5-28.1-17.2-39.9-18.1c-6.3-0.5-11,0.5-14.1,3
		c-1,0.8-1.9,1.7-2.9,2.7c-5.9,6.2-10.2,16.1-5.7,23c1.9,3.1,5.2,5,8.6,7.1c4.6,2.7,12.2,5.6,18,12.6c9.8,11.8,32.6,38.1,46.5,52.1
		c2.9,1.6,9,7.4,11.8,8.8c8.7,5.1,15.8,10,18.3,12.7c1.9,2.1,13.2,7.4,13.2,7.4c9.2,5.4,25.7,10.2,44.6,9.5c18.8-0.6,36,0,48.3-11.6
		h0.7l0.3-0.9c12.5-12.2,20-28.8,19.4-46.9C392.1,443.1,391.6,426.6,391.5,423.5z"/>
	<path class="st1" d="M257.8,178.4c-29.1,1-51.9,25.3-50.9,54.4c0.5,15.7,6.1,29.5,16.6,38.7v-22.2c0-8.5,3-16.3,7.9-22.4
		c6.6-8.2,16.6-13.4,28-13.4c16.9,0,31,11.7,34.8,27.5c0.7,2.7,1,5.5,1,8.4l0.1,23.1c11.9-10,17.4-25.6,16.9-43.1
		C311.3,200.3,286.9,177.5,257.8,178.4z"/>
</g>
<polygon class="st3" points="185.7,68.7 315.3,68.7 315.3,68.7 315.3,24.4 185.7,24.4 "/>
</svg>
