<?xml version="1.0" encoding="utf-8"?>
<!-- Generator: Adobe Illustrator 22.0.0, SVG Export Plug-In . SVG Version: 6.00 Build 0)  -->
<svg version="1.1" id="Capa_1" xmlns="http://www.w3.org/2000/svg" xmlns:xlink="http://www.w3.org/1999/xlink" x="0px" y="0px"
	 viewBox="0 0 500 510" style="enable-background:new 0 0 500 510;" xml:space="preserve">
<style type="text/css">
	.st0{fill:#80ACFF;}
</style>
<path class="st0" d="M170.2,290.8V378H79.5v-22.7c0-20.8-17-37.8-37.8-37.8H19V499h22.7c20.8,0,37.8-17,37.8-37.8v-22.7h113.4
	c20.8,0,37.8-17,37.8-37.8V290.8c9.3-8.3,15.1-20.3,15.1-33.7h113.4c45.9,0,83.2-37.3,83.2-83.2c0-2.6-0.2-5.1-0.4-7.6h45.7v-7.6
	c0-45.9-37.3-83.2-83.2-83.2h-92.8l-15.1-45.4H195l-15.1,45.4H87c-37.5,0-68,30.5-68,68V189c0,37.5,30.5,68,68,68h68
	C155.1,270.4,161,282.5,170.2,290.8z M64.4,461.2c0,12.5-10.2,22.7-22.7,22.7h-7.6V332.7h7.6c12.5,0,22.7,10.2,22.7,22.7V461.2z
	 M295.8,75.6h-100l10.1-30.2h79.8L295.8,75.6z M357,90.7c-19.5,13.7-32.9,35.5-35.2,60.5H34.1v-7.6c0-29.2,23.7-52.9,52.9-52.9H357z
	 M439.2,151.2c-7.7-27.2-29-48.8-56.1-57c6.8-2.3,14-3.5,21.5-3.5c35,0,63.9,26.5,67.6,60.5H439.2z M359.2,241.9
	c-37.5,0-68-30.5-68-68c0-2.5,0.2-5.1,0.4-7.6h44.9v-7.6c0-21.3,9.8-40.3,25.2-52.8c36.4,1.3,65.5,31.2,65.5,67.9
	C427.3,211.4,396.8,241.9,359.2,241.9z M200.5,211.7c-19.7,0-36.5,12.6-42.7,30.2H87c-29.2,0-52.9-23.7-52.9-52.9v-22.7h242.3
	c-0.2,2.5-0.4,5-0.4,7.6c0,28.1,14.1,53,35.5,68h-68.4C236.9,224.3,220.2,211.7,200.5,211.7z M94.6,423.4H79.5v-30.2h15.1V423.4z
	 M170.2,393.1c8.3,0,15.1-6.8,15.1-15.1v-78.3c4.7,1.7,9.8,2.6,15.1,2.6c5.3,0,10.4-1,15.1-2.6v100.9c0,12.5-10.2,22.7-22.7,22.7
	h-83.2v-30.2H170.2z M170.2,257.1c0-16.7,13.6-30.2,30.2-30.2s30.2,13.6,30.2,30.2c0,16.7-13.6,30.2-30.2,30.2
	S170.2,273.7,170.2,257.1z"/>
<path class="st0" d="M41.7,483.9h-7.6V332.7h7.6c12.5,0,22.7,10.2,22.7,22.7v105.9C64.4,473.7,54.2,483.9,41.7,483.9z"/>
<polygon class="st0" points="205.9,45.4 285.7,45.4 295.8,75.6 195.8,75.6 "/>
<path class="st0" d="M383.1,94.2c6.8-2.3,14-3.5,21.5-3.5c35,0,63.9,26.5,67.6,60.5h-33C431.4,124,410.2,102.4,383.1,94.2z"/>
<path class="st0" d="M359.2,196.6c12.5,0,22.7-10.2,22.7-22.7c0-12.5-10.2-22.7-22.7-22.7v-15.1c20.8,0,37.8,17,37.8,37.8
	s-17,37.8-37.8,37.8c-13.5,0-26-7.2-32.7-18.9l13.1-7.6C343.6,192.2,351.2,196.6,359.2,196.6z"/>
<path class="st0" d="M200.5,226.8c16.7,0,30.2,13.6,30.2,30.2c0,16.7-13.6,30.2-30.2,30.2s-30.2-13.6-30.2-30.2
	C170.2,240.4,183.8,226.8,200.5,226.8z"/>
<rect x="192.9" y="105.8" class="st0" width="121" height="15.1"/>
<rect x="124.9" y="121" class="st0" width="15.1" height="15.1"/>
<rect x="94.6" y="121" class="st0" width="15.1" height="15.1"/>
<rect x="64.4" y="121" class="st0" width="15.1" height="15.1"/>
</svg>
