<?xml version="1.0" encoding="utf-8"?>
<!-- Generator: Adobe Illustrator 22.0.0, SVG Export Plug-In . SVG Version: 6.00 Build 0)  -->
<svg version="1.1" id="Capa_1" xmlns="http://www.w3.org/2000/svg" xmlns:xlink="http://www.w3.org/1999/xlink" x="0px" y="0px"
	 viewBox="0 0 500 510" style="enable-background:new 0 0 500 510;" xml:space="preserve">
<style type="text/css">
	.st0{fill:#80ACFF;}
</style>
<g>
	<path class="st0" d="M454.5,77v-5c6.1-6.2,11.1-13.7,14.5-22.2l0.5-1.3V32H312.1c-12.4,0-22.5,10.1-22.5,22.5v59.9
		c0,12.4,10.1,22.5,22.5,22.5h22.5v7.5c0,9.8,6.3,18,15,21.1v16.4h-74.9V32h-45v149.8h-74.9v-16.4c8.7-3.1,15-11.3,15-21.1v-7.5
		h22.5c12.4,0,22.5-10.1,22.5-22.5V54.5c0-12.4-10.1-22.5-22.5-22.5H34.9v16.4l0.5,1.3c3.4,8.5,8.3,16,14.5,22.2v5h-30v45h31.3
		c3.1,8.7,11.3,15,21.1,15h22.5v7.5c0,9.8,6.3,18,15,21.1v23.9c0,20.7,16.8,37.5,37.5,37.5h82.4v15h-15v59.9h15v119.9h-30v59.9H49.9
		v15h404.6v-15H304.6v-59.9h-30V301.7h15v-59.9h-15v-15h82.4c20.7,0,37.5-16.8,37.5-37.5v-23.9c8.7-3.1,15-11.3,15-21.1v-7.5H432
		c9.8,0,18-6.3,21.1-15h31.3V77H454.5z M34.9,91.9h15v15h-15V91.9z M50.6,47h141.7c4.1,0,7.5,3.4,7.5,7.5V77h-102
		C77.3,77,59.1,65.3,50.6,47z M154.8,136.9v7.5c0,4.1-3.4,7.5-7.5,7.5h-30c-4.1,0-7.5-3.4-7.5-7.5v-7.5H154.8z M147.3,211.8
		c-12.4,0-22.5-10.1-22.5-22.5v-22.5h15v15c0,8.3,6.7,15,15,15h74.9v15H147.3z M289.6,481.5h-74.9v-45h74.9V481.5z M259.7,421.6h-15
		V301.7h15V421.6z M274.7,286.7h-45v-30h45V286.7z M244.7,241.8V47h15v194.8H244.7z M357.1,211.8h-82.4v-15h74.9c8.3,0,15-6.7,15-15
		v-15h15v22.5C379.5,201.7,369.5,211.8,357.1,211.8z M394.5,144.4c0,4.1-3.4,7.5-7.5,7.5h-30c-4.1,0-7.5-3.4-7.5-7.5v-7.5h45V144.4z
		 M406.6,77h-102V54.5c0-4.1,3.4-7.5,7.5-7.5h141.7C445.2,65.3,427,77,406.6,77z M469.4,106.9h-15v-15h15V106.9z"/>
	<path class="st0" d="M469.4,481.5h15v15h-15V481.5z"/>
	<path class="st0" d="M19.9,481.5h15v15h-15V481.5z"/>
</g>
</svg>
