<?xml version="1.0" encoding="utf-8"?>
<!-- Generator: Adobe Illustrator 22.0.0, SVG Export Plug-In . SVG Version: 6.00 Build 0)  -->
<svg version="1.1" id="Capa_1" xmlns="http://www.w3.org/2000/svg" xmlns:xlink="http://www.w3.org/1999/xlink" x="0px" y="0px"
	 viewBox="0 0 500 510" style="enable-background:new 0 0 500 510;" xml:space="preserve">
<style type="text/css">
	.st0{fill:#80ACFF;}
</style>
<g>
	<path class="st0" d="M427.5,87.1H313.6l14.6-14.6L296,40.3l-68.8,68.8l68.8,68.8l32.2-32.2L313.6,131h113.9c4,0,7.3,3.3,7.3,7.3
		v182.7h43.8V138.3C478.6,110.1,455.7,87.1,427.5,87.1L427.5,87.1z M464,306.3h-14.6v-168c0-12.1-9.8-21.9-21.9-21.9H278.3
		l29.2,29.2L296,157.2l-48.1-48.1L296,60.9l11.6,11.6l-29.2,29.2h149.1c20.1,0,36.5,16.4,36.5,36.5V306.3z"/>
	<path class="st0" d="M288.7,496.3h190v-73.1h-190V496.3z M464,481.7H332.5v-43.8H464V481.7z M303.3,437.8h14.6v43.8h-14.6V437.8z"
		/>
	<path class="st0" d="M347.1,452.4h14.6v14.6h-14.6V452.4z"/>
	<path class="st0" d="M376.3,452.4h14.6v14.6h-14.6V452.4z"/>
	<path class="st0" d="M405.6,452.4h14.6v14.6h-14.6V452.4z"/>
	<path class="st0" d="M434.8,452.4h14.6v14.6h-14.6V452.4z"/>
	<path class="st0" d="M288.7,408.6h190v-73.1h-190V408.6z M464,394H332.5v-43.8H464V394z M303.3,350.2h14.6V394h-14.6V350.2z"/>
	<path class="st0" d="M347.1,364.8h14.6v14.6h-14.6V364.8z"/>
	<path class="st0" d="M376.3,364.8h14.6v14.6h-14.6V364.8z"/>
	<path class="st0" d="M405.6,364.8h14.6v14.6h-14.6V364.8z"/>
	<path class="st0" d="M434.8,364.8h14.6v14.6h-14.6V364.8z"/>
	<path class="st0" d="M215.6,160.2h-190v73.1h190V160.2z M40.2,174.8h14.6v43.8H40.2V174.8z M201,218.7H69.5v-43.8H201V218.7z"/>
	<path class="st0" d="M84.1,189.4h14.6V204H84.1V189.4z"/>
	<path class="st0" d="M113.3,189.4h14.6V204h-14.6V189.4z"/>
	<path class="st0" d="M142.5,189.4h14.6V204h-14.6V189.4z"/>
	<path class="st0" d="M171.8,189.4h14.6V204h-14.6V189.4z"/>
	<path class="st0" d="M215.6,72.5h-190v73.1h190V72.5z M40.2,87.1h14.6V131H40.2V87.1z M201,131H69.5V87.1H201V131z"/>
	<path class="st0" d="M84.1,101.8h14.6v14.6H84.1V101.8z"/>
	<path class="st0" d="M113.3,101.8h14.6v14.6h-14.6V101.8z"/>
	<path class="st0" d="M142.5,101.8h14.6v14.6h-14.6V101.8z"/>
	<path class="st0" d="M171.8,101.8h14.6v14.6h-14.6V101.8z"/>
	<path class="st0" d="M149.8,320.9c-28.2,0-51.1,22.9-51.1,51.1c0,28.2,22.9,51.1,51.1,51.1s51.1-22.9,51.1-51.1
		C201,343.9,178,320.9,149.8,320.9z M149.8,408.6c-20.1,0-36.5-16.4-36.5-36.5s16.4-36.5,36.5-36.5s36.5,16.4,36.5,36.5
		S170,408.6,149.8,408.6z"/>
	<path class="st0" d="M149.8,291.7c-44.3,0-80.4,36.1-80.4,80.4s36.1,80.4,80.4,80.4s80.4-36.1,80.4-80.4S194.2,291.7,149.8,291.7z
		 M149.8,437.8c-36.3,0-65.8-29.5-65.8-65.8s29.5-65.8,65.8-65.8s65.8,29.5,65.8,65.8S186.1,437.8,149.8,437.8z"/>
	<path class="st0" d="M250.9,330.1c-2.7-6.6-1.9-14,2.2-19.8l4.4-6.1l-39.8-39.8l-6.1,4.4c-5.8,4.1-13.2,5-20.1,2.1
		c-6.6-2.7-11.2-8.5-12.4-15.6l-1.2-7.4h-56.2l-1.2,7.4c-1.2,7-5.8,12.8-12.7,15.7c-6.6,2.7-14,1.9-19.8-2.2l-6.1-4.4l-39.7,39.7
		l4.4,6.1c4.1,5.8,5,13.2,2.1,20.1c-2.7,6.6-8.5,11.2-15.5,12.4l-7.4,1.2v56.2l7.4,1.2c7,1.2,12.8,5.8,15.7,12.7
		c2.7,6.6,1.9,14-2.2,19.8l-4.3,6.1l39.7,39.7l6.1-4.4c5.8-4.1,13.2-5,20.1-2.1c6.6,2.7,11.2,8.5,12.4,15.6l1.2,7.4h56.2l1.2-7.4
		c1.2-7,5.8-12.8,12.7-15.7c6.6-2.8,14-1.9,19.8,2.2l6.1,4.4l39.8-39.8l-4.4-6.1c-4.1-5.8-5-13.2-2.1-20.1
		c2.7-6.6,8.5-11.2,15.5-12.4l7.4-1.2V344l-7.4-1.2C259.6,341.6,253.8,336.9,250.9,330.1L250.9,330.1z M259.4,388.2
		c-9.9,3.1-17.9,10.4-22,20.3c-4.1,9.8-3.6,20.6,1.2,29.7L216,460.9c-9.2-4.8-20-5.3-30-1.1c-9.8,4-17,12-20.1,21.9h-32.1
		c-3.1-9.9-10.4-17.9-20.3-22c-9.8-4.1-20.5-3.6-29.7,1.2L61,438.2c4.8-9.2,5.3-20,1.1-30c-4-9.8-12-17-21.9-20.1V356
		c9.9-3.1,17.9-10.4,22-20.3c4.1-9.8,3.6-20.6-1.2-29.7l22.7-22.7c9.1,4.8,20,5.3,30,1.1c9.8-4,17-12,20.1-21.9h32.1
		c3.1,9.9,10.4,17.9,20.3,22c9.8,4.1,20.6,3.5,29.7-1.2l22.7,22.7c-4.8,9.2-5.3,20-1.1,30c4,9.7,12,17,21.9,20.1L259.4,388.2
		L259.4,388.2z"/>
</g>
</svg>
