<?xml version="1.0" encoding="utf-8"?>
<!-- Generator: Adobe Illustrator 22.0.0, SVG Export Plug-In . SVG Version: 6.00 Build 0)  -->
<svg version="1.1" id="Capa_1" xmlns="http://www.w3.org/2000/svg" xmlns:xlink="http://www.w3.org/1999/xlink" x="0px" y="0px"
	 viewBox="0 0 500 510" style="enable-background:new 0 0 500 510;" xml:space="preserve">
<style type="text/css">
	.st0{fill:none;}
	.st1{fill:#80ACFF;}
</style>
<polygon class="st0" points="185.7,68.7 315.3,68.7 315.3,68.7 315.3,24.4 185.7,24.4 "/>
<polygon class="st0" points="185.7,592.7 315.3,592.7 315.3,592.7 315.3,548.4 185.7,548.4 "/>
<path class="st1" d="M195.9,275.3c-4.4,0-8,3.6-8,8c0,4.4,3.6,8,8,8c4.4,0,8-3.6,8-8C203.8,278.9,200.3,275.3,195.9,275.3z"/>
<path class="st1" d="M140.2,235.6c-4.4,0-8,3.6-8,8c0,4.4,3.6,8,8,8s8-3.6,8-8C148.2,239.1,144.6,235.6,140.2,235.6z"/>
<path class="st1" d="M466.3,84.5h-88.5l-41.9-41.9c-3.1-3.1-8.1-3.1-11.2,0L297,70.3c-1.9-0.9-3.8-1.6-5.7-2.3V28.8c0-4.4-3.6-8-8-8
	h-63.6c-4.4,0-8,3.6-8,8V68c-1.9,0.7-3.8,1.5-5.7,2.3l-27.7-27.7c-3.2-3-8.1-3-11.2,0l-41.9,41.9H36.9C23.7,84.5,13,95.2,13,108.4
	v270.4c0,13.2,10.7,23.9,23.9,23.9h159v31.8h-31.8c-13.2,0-23.9,10.7-23.9,23.9V490c0,4.4,3.6,8,8,8h206.7c4.4,0,8-3.6,8-8v-31.8
	c0-13.2-10.7-23.9-23.9-23.9h-31.8v-31.8h159c13.2,0,23.9-10.7,23.9-23.9V108.4C490.1,95.2,479.4,84.5,466.3,84.5z M172.8,59.5
	l26,26c2.4,2.4,6.1,3,9.2,1.5c4.5-2.3,9.3-4.2,14.1-5.8c3.3-1,5.6-4.1,5.6-7.6V36.8h47.7v36.8c0,3.5,2.3,6.5,5.6,7.6
	c4.9,1.6,9.6,3.5,14.1,5.8c3.1,1.5,6.8,0.9,9.2-1.5l26-26L364,93.2l-17.4,17.4l-8.6,8.6c-2.4,2.4-3,6.1-1.5,9.2
	c2.3,4.5,4.2,9.3,5.8,14.1c1,3.3,4.1,5.6,7.6,5.6h36.8v47.7h-76.2c13.1-32.6-2.7-69.6-35.3-82.8s-69.7,2.7-82.8,35.3
	c-6.1,15.2-6.1,32.3,0,47.5h-76.2v-47.7h36.8c3.5,0,6.5-2.3,7.6-5.6c1.6-4.9,3.5-9.6,5.8-14.1c1.5-3.1,0.9-6.8-1.5-9.2l-8.6-8.6
	l-17.4-17.4L172.8,59.5z M426.5,251.5H162.6c-2.4,6.8-7.8,12.2-14.6,14.6c-12.4,4.3-25.9-2.2-30.2-14.6H76.6c-4.4,0-8-3.6-8-8
	c0-4.4,3.6-8,8-8h41.2c2.4-6.8,7.8-12.2,14.6-14.6c12.4-4.3,25.9,2.2,30.2,14.6h263.9c4.4,0,8,3.6,8,8
	C434.5,247.9,430.9,251.5,426.5,251.5z M434.5,283.3c0,4.4-3.6,8-8,8H218.3c-2.4,6.8-7.8,12.2-14.6,14.6
	c-12.4,4.3-25.9-2.2-30.2-14.6H76.6c-4.4,0-8-3.6-8-8c0-4.4,3.6-8,8-8h96.9c2.4-6.8,7.8-12.2,14.6-14.6c12.4-4.3,25.9,2.2,30.2,14.6
	h208.2C430.9,275.3,434.5,278.9,434.5,283.3z M203.8,172c0-26.4,21.4-47.7,47.7-47.7c26.3,0,47.7,21.4,47.7,47.7
	c0,8.4-2.3,16.6-6.6,23.9h-82.3C206.1,188.6,203.9,180.4,203.8,172z M291.3,434.4h-79.5v-31.8h79.5V434.4z M474.2,378.7
	c0,4.4-3.6,8-8,8H36.9c-4.4,0-8-3.6-8-8v-23.9h445.3V378.7z M474.2,339H28.9V108.4c0-4.4,3.6-8,8-8h86.9l8,8H44.8c-4.4,0-8,3.6-8,8
	v206.8c0,4.4,3.6,8,8,8h413.5c4.4,0,8-3.6,8-8V116.3c0-4.4-3.6-8-8-8h-86.9l8-8h86.9c4.4,0,8,3.6,8,8V339z"/>
</svg>
