<?xml version="1.0" encoding="utf-8"?>
<!-- Generator: Adobe Illustrator 22.0.0, SVG Export Plug-In . SVG Version: 6.00 Build 0)  -->
<svg version="1.1" id="Capa_1" xmlns="http://www.w3.org/2000/svg" xmlns:xlink="http://www.w3.org/1999/xlink" x="0px" y="0px"
	 viewBox="0 0 500 510" style="enable-background:new 0 0 500 510;" xml:space="preserve">
<style type="text/css">
	.st0{opacity:0.6;}
	.st1{fill:#FFFFFF;}
	.st2{fill:#80ACFF;}
	.st3{fill:none;}
</style>
<g class="st0">
	<path class="st1" d="M477.3,309H316.8c-2.6,0-4.7-2.1-4.7-4.7V253c0-2.6,2.1-4.7,4.7-4.7h160.5c2.6,0,4.7,2.1,4.7,4.7v51.3
		C482,306.9,479.9,309,477.3,309z"/>
</g>
<g class="st0">
	<path class="st1" d="M477.3,397.8H316.8c-2.6,0-4.7-2.1-4.7-4.7v-51.3c0-2.6,2.1-4.7,4.7-4.7h160.5c2.6,0,4.7,2.1,4.7,4.7v51.3
		C482,395.7,479.9,397.8,477.3,397.8z"/>
</g>
<g class="st0">
	<path class="st1" d="M477.3,486.6H316.8c-2.6,0-4.7-2.1-4.7-4.7v-51.3c0-2.6,2.1-4.7,4.7-4.7h160.5c2.6,0,4.7,2.1,4.7,4.7v51.3
		C482,484.5,479.9,486.6,477.3,486.6z"/>
</g>
<path class="st2" d="M390,131.6v1.4c0,3.9,3.1,7,7,7c3.9,0,7-3.1,7-7v-1.4c0-5-1.8-9.8-5-13.6c-2.5-3-6.9-3.4-9.9-0.9
	s-3.4,6.9-0.9,9.9C389.1,128,390,129.5,390,131.6L390,131.6z"/>
<path class="st2" d="M397,184.1c-3.9,0-7,3.1-7,7v11.3c0,3.9,3.1,7,7,7c3.9,0,7-3.1,7-7v-11.3C404.1,187.3,400.9,184.1,397,184.1z"
	/>
<path class="st2" d="M404.1,156.5c0-3.9-3.1-7-7-7c-3.9,0-7,3.1-7,7v11.3c0,3.9,3.1,7,7,7c3.9,0,7-3.1,7-7V156.5z"/>
<path class="st2" d="M282.7,449.3h-11.3c-3.9,0-7,3.1-7,7c0,3.9,3.1,7,7,7h11.3c3.9,0,7-3.1,7-7
	C289.8,452.4,286.6,449.3,282.7,449.3z"/>
<path class="st2" d="M248.1,449.3h-11.3c-3.9,0-7,3.1-7,7c0,3.9,3.1,7,7,7h11.3c3.9,0,7-3.1,7-7
	C255.1,452.4,251.9,449.3,248.1,449.3z"/>
<path class="st2" d="M213.4,449.3h-11.3c-3.9,0-7,3.1-7,7c0,3.9,3.1,7,7,7h11.3c3.9,0,7-3.1,7-7
	C220.4,452.4,217.3,449.3,213.4,449.3z"/>
<path class="st2" d="M178.7,449.3h-11.3c-3.9,0-7,3.1-7,7c0,3.9,3.1,7,7,7h11.3c3.9,0,7-3.1,7-7
	C185.7,452.4,182.6,449.3,178.7,449.3z"/>
<path class="st2" d="M146.9,448.7c-1.7-0.7-3.1-2.2-3.8-3.9c-1.4-3.6-5.5-5.4-9.1-4c-3.6,1.4-5.4,5.5-4,9.1c2,5.3,6.2,9.6,11.4,11.8
	c0.9,0.4,1.8,0.6,2.8,0.6c2.7,0,5.3-1.6,6.5-4.3C152.1,454.4,150.5,450.2,146.9,448.7L146.9,448.7z"/>
<path class="st2" d="M135.6,431c3.9,0,7-3.1,7-7v-11.3c0-3.9-3.1-7-7-7s-7,3.1-7,7V424C128.6,427.9,131.7,431,135.6,431z"/>
<path class="st2" d="M167.6,176.3H70.1c-3.9,0-7,3.1-7,7c0,3.9,3.1,7,7,7h97.5c3.9,0,7-3.1,7-7C174.7,179.5,171.5,176.3,167.6,176.3
	z"/>
<path class="st2" d="M167.6,210.4H70.1c-3.9,0-7,3.1-7,7c0,3.9,3.1,7,7,7h97.5c3.9,0,7-3.1,7-7C174.7,213.5,171.5,210.4,167.6,210.4
	z"/>
<path class="st2" d="M167.6,244.3H70.1c-3.9,0-7,3.1-7,7s3.1,7,7,7h97.5c3.9,0,7-3.1,7-7C174.7,247.4,171.5,244.3,167.6,244.3
	L167.6,244.3z"/>
<path class="st2" d="M174.7,285.5c0-3.9-3.1-7-7-7H70.1c-3.9,0-7,3.1-7,7s3.1,7,7,7h97.5C171.5,292.6,174.7,289.4,174.7,285.5z"/>
<path class="st2" d="M70.1,312.6c-3.9,0-7,3.1-7,7c0,3.9,3.1,7,7,7h43.7c3.9,0,7-3.1,7-7c0-3.9-3.1-7-7-7H70.1z"/>
<g>
	<path class="st3" d="M213.1,385.8c1.4,1.4,3.2,2.1,5,2.1c1.8,0,3.6-0.7,5-2.1l28.4-28.4c2.7-2.7,2.7-7.2,0-9.9
		c-2.7-2.7-7.2-2.7-9.9,0l-23.4,23.4l-16.4-16.4c-2.7-2.7-7.2-2.7-9.9,0c-2.7,2.7-2.7,7.2,0,9.9L213.1,385.8z"/>
	<path class="st2" d="M371.8,110.5h-7.9c-0.1-1.6-0.3-3.2-0.5-4.9c-0.8-6.2-6.1-10.9-12.3-10.9h-18.1c-1.2-3.5-2.6-7-4.3-10.3
		l12.8-12.8c4.4-4.4,4.9-11.5,1-16.4c-5.1-6.5-11-12.4-17.6-17.6c-4.9-3.9-12-3.4-16.4,1l-12.8,12.8c-3.3-1.7-6.8-3.1-10.3-4.3V29.1
		c0-6.3-4.7-11.6-10.9-12.3c-8.2-1-16.6-1-24.8,0c-6.2,0.8-10.9,6.1-10.9,12.3v18.1c-3.5,1.2-7,2.6-10.3,4.3l-12.8-12.8
		c-4.4-4.4-11.5-4.9-16.4-1c-6.5,5.1-12.4,11-17.6,17.6c-3.9,4.9-3.4,12,1,16.4l12.8,12.8c-1.7,3.3-3.1,6.8-4.3,10.3h-18.1
		c-6.3,0-11.6,4.7-12.3,10.9c-0.2,1.6-0.3,3.2-0.5,4.9H61.7c-4.4,0-8.5,1.7-11.6,4.8l-36.3,36.3c-3.1,3.1-4.8,7.2-4.8,11.6v202.6
		c0,9,7.4,16.4,16.4,16.4h103.2v7.1c0,3.9,3.1,7,7,7c3.9,0,7-3.1,7-7v-7.1h19.2c7.4,26,31.4,45.2,59.7,45.2
		c34.2,0,62.1-27.9,62.1-62.1c0-31.8-24-58.1-54.9-61.7v-31.9c0-3.9-3.1-7-7-7s-7,3.1-7,7v31.9c-31,3.4-55.2,29.8-55.2,61.7
		c0,1,0,1.9,0.1,2.9H25.4c-1.3,0-2.3-1.1-2.3-2.3V163.2c0-0.6,0.2-1.2,0.7-1.7L60,125.3c0.4-0.4,1-0.7,1.7-0.7h98.5
		c0.1,2,0.3,4,0.5,5.9c0.8,6.2,6.1,10.9,12.3,10.9h18.1c1.2,3.5,2.6,7,4.3,10.3l-12.8,12.8c-4.4,4.4-4.9,11.5-1,16.4
		c5.1,6.5,11,12.4,17.6,17.6c4.6,3.6,11.1,3.4,15.5-0.2v40.6c0,3.9,3.1,7,7,7c3.9,0,7-3.1,7-7v-54c3.2,1.6,6.6,3,10,4.1v18.1
		c0,6.3,4.7,11.6,10.9,12.3c4.1,0.5,8.3,0.8,12.4,0.8c4.1,0,8.3-0.3,12.4-0.8c6.2-0.8,10.9-6.1,10.9-12.3V189
		c3.5-1.2,7-2.6,10.3-4.3l12.8,12.8c4.4,4.4,11.5,4.9,16.4,1c6.5-5.1,12.4-11,17.6-17.6c3.9-4.9,3.4-12-1-16.4l-12.8-12.8
		c1.7-3.3,3.1-6.8,4.3-10.3h18.1c6.3,0,11.6-4.7,12.3-10.9c0.2-2,0.4-3.9,0.5-5.9h7.9c3.9,0,7-3.1,7-7
		C378.8,113.7,375.7,110.5,371.8,110.5z M191.7,354.5c2.7-2.7,7.2-2.7,9.9,0l16.4,16.4l23.4-23.4c2.7-2.7,7.2-2.7,9.9,0
		c2.7,2.7,2.7,7.2,0,9.9L223,385.8c-1.4,1.4-3.2,2.1-5,2.1c-1.8,0-3.6-0.7-5-2.1l-21.4-21.4C189,361.7,189,357.3,191.7,354.5z
		 M349.6,127.3h-17.9c-5.5,0-10.2,3.5-11.9,8.8c-1.1,3.5-2.5,6.9-4.2,10.1c-2.6,4.9-1.7,10.7,2.2,14.6l12.6,12.6
		c-3.9,4.8-8.3,9.2-13.1,13.1l-12.6-12.6c-3.9-3.9-9.7-4.7-14.6-2.2c-3.2,1.7-6.6,3.1-10.1,4.2c-5.3,1.6-8.8,6.4-8.8,11.9v17.9
		c-6.1,0.6-12.4,0.6-18.5,0v-17.9c0-5.5-3.5-10.2-8.8-11.9c-3.5-1.1-6.9-2.5-10.1-4.2c-4.9-2.6-10.7-1.7-14.6,2.2l-12.6,12.6
		c-4.8-3.9-9.2-8.3-13.1-13.1l12.6-12.6c3.9-3.9,4.7-9.7,2.2-14.6c-1.7-3.2-3.1-6.6-4.2-10.1c-1.6-5.3-6.4-8.8-11.9-8.8h-17.9
		c-0.3-3.1-0.5-6.2-0.5-9.2c0-3.1,0.2-6.2,0.5-9.2h17.9c5.5,0,10.2-3.5,11.9-8.8c1.1-3.5,2.5-6.9,4.2-10.1
		c2.6-4.9,1.7-10.7-2.2-14.6l-12.6-12.6c3.9-4.8,8.3-9.2,13.1-13.1l12.6,12.6c3.9,3.9,9.7,4.7,14.6,2.2c3.2-1.7,6.6-3.1,10.1-4.2
		c5.3-1.6,8.8-6.4,8.8-11.9V30.5c6.1-0.6,12.4-0.6,18.5,0v17.9c0,5.5,3.5,10.2,8.8,11.9c3.5,1.1,6.9,2.5,10.1,4.2
		c4.9,2.6,10.7,1.7,14.6-2.2l12.6-12.6c4.8,3.9,9.2,8.3,13.1,13.1l-12.6,12.6c0,0,0,0,0,0c-3.9,3.9-4.7,9.7-2.2,14.6
		c1.7,3.2,3.1,6.6,4.2,10.1c1.6,5.3,6.4,8.8,11.9,8.8h17.9c0.3,3.1,0.5,6.2,0.5,9.2C350.1,121.2,349.9,124.3,349.6,127.3z"/>
	<path class="st2" d="M331.7,108.9c-5.5,0-10.2-3.5-11.9-8.8c-1.1-3.5-2.5-6.9-4.2-10.1c-2.6-4.9-1.7-10.7,2.2-14.6c0,0,0,0,0,0
		l12.6-12.6c-3.9-4.8-8.3-9.2-13.1-13.1l-12.6,12.6c-3.9,3.9-9.7,4.7-14.6,2.2c-3.2-1.7-6.6-3.1-10.1-4.2c-5.3-1.6-8.8-6.4-8.8-11.9
		V30.5c-6.1-0.6-12.4-0.6-18.5,0v17.9c0,5.5-3.5,10.2-8.8,11.9c-3.5,1.1-6.9,2.5-10.1,4.2c-4.9,2.6-10.7,1.7-14.6-2.2l-12.6-12.6
		c-4.8,3.9-9.2,8.3-13.1,13.1l12.6,12.6c3.9,3.9,4.7,9.7,2.2,14.6c-1.7,3.2-3.1,6.6-4.2,10.1c-1.6,5.3-6.4,8.8-11.9,8.8h-17.9
		c-0.3,3.1-0.5,6.2-0.5,9.2c0,3.1,0.2,6.2,0.5,9.2h17.9c5.5,0,10.2,3.5,11.9,8.8c1.1,3.5,2.5,6.9,4.2,10.1
		c2.6,4.9,1.7,10.7-2.2,14.6l-12.6,12.6c3.9,4.8,8.3,9.2,13.1,13.1l12.6-12.6c3.9-3.9,9.7-4.7,14.6-2.2c3.2,1.7,6.6,3.1,10.1,4.2
		c5.3,1.6,8.8,6.4,8.8,11.9v17.9c6.1,0.6,12.4,0.6,18.5,0v-17.9c0-5.5,3.5-10.2,8.8-11.9c3.5-1.1,6.9-2.5,10.1-4.2
		c4.9-2.6,10.7-1.7,14.6,2.2l12.6,12.6c4.8-3.9,9.2-8.3,13.1-13.1l-12.6-12.6c-3.9-3.9-4.7-9.7-2.2-14.6c1.7-3.2,3.1-6.6,4.2-10.1
		c1.6-5.3,6.4-8.8,11.9-8.8h17.9c0.3-3.1,0.5-6.2,0.5-9.2c0-3.1-0.2-6.2-0.5-9.2H331.7z M262.1,167.7c-27.4,0-49.7-22.3-49.7-49.7
		c0-27.4,22.3-49.7,49.7-49.7c30.6,0,43.8,26,45.4,29.5c2.8,6.4,4.3,13.1,4.3,20.1C311.7,145.5,289.4,167.7,262.1,167.7z"/>
	<path class="st2" d="M269.7,76.2c0.7,0.1,1.5,0.3,2.2,0.5C271.2,76.5,270.4,76.4,269.7,76.2z"/>
	<polygon class="st2" points="262.1,160.7 262.1,160.7 262.1,160.7 	"/>
	<path class="st2" d="M271.9,159.5c-0.7,0.2-1.5,0.3-2.2,0.5C270.4,159.8,271.2,159.6,271.9,159.5z"/>
	<polygon class="st2" points="262.1,75.5 262.1,75.5 262.1,75.5 	"/>
</g>
<path class="st2" d="M477.3,316c6.5,0,11.7-5.3,11.7-11.7V253c0-6.5-5.3-11.7-11.7-11.7h-74.6c0.9-1.2,1.4-2.6,1.4-4.2v-11.3
	c0-3.9-3.1-7-7-7c-3.9,0-7,3.1-7,7v11.3c0,1.6,0.5,3,1.4,4.2h-74.6c-6.5,0-11.7,5.3-11.7,11.7v51.3c0,6.5,5.3,11.7,11.7,11.7H390
	v14.1h-73.2c-6.5,0-11.7,5.3-11.7,11.7v51.3c0,6.5,5.3,11.7,11.7,11.7H390v14.1h-73.2c-6.5,0-11.7,5.3-11.7,11.7v18.7
	c-3.4,0.5-5.9,3.4-5.9,6.9c0,3.5,2.6,6.4,5.9,6.9v18.7c0,6.5,5.3,11.7,11.7,11.7h160.5c6.5,0,11.7-5.3,11.7-11.7v-51.3
	c0-6.5-5.3-11.7-11.7-11.7h-73.2v-14.1h18.4c3.9,0,7-3.1,7-7c0-3.9-3.1-7-7-7H319.2v-46.6h155.8v46.6h-19.7c-3.9,0-7,3.1-7,7
	c0,3.9,3.1,7,7,7h22c6.5,0,11.7-5.3,11.7-11.7v-51.3c0-6.5-5.3-11.7-11.7-11.7h-73.2V316H477.3z M474.9,433v46.6H319.2V433H474.9z
	 M319.2,301.9v-46.6h155.8v46.6H319.2z"/>
<path class="st2" d="M448.6,271.6H345.5c-3.9,0-7,3.1-7,7s3.1,7,7,7h103.1c3.9,0,7-3.1,7-7S452.5,271.6,448.6,271.6z"/>
<path class="st2" d="M455.6,367.5c0-3.9-3.1-7-7-7H345.5c-3.9,0-7,3.1-7,7s3.1,7,7,7h103.1C452.5,374.5,455.6,371.4,455.6,367.5z"/>
<path class="st2" d="M345.5,463.3h103.1c3.9,0,7-3.1,7-7c0-3.9-3.1-7-7-7H345.5c-3.9,0-7,3.1-7,7
	C338.5,460.2,341.6,463.3,345.5,463.3z"/>
</svg>
