<?xml version="1.0" encoding="utf-8"?>
<!-- Generator: Adobe Illustrator 22.0.0, SVG Export Plug-In . SVG Version: 6.00 Build 0)  -->
<svg version="1.1" id="Capa_1" xmlns="http://www.w3.org/2000/svg" xmlns:xlink="http://www.w3.org/1999/xlink" x="0px" y="0px"
	 viewBox="0 0 500 510" style="enable-background:new 0 0 500 510;" xml:space="preserve">
<style type="text/css">
	.st0{fill:#80ACFF;}
</style>
<g id="Database-cloud-laptop-computer-smartphone">
	<path class="st0" d="M319.7,181.2h-136c-4.2,0-7.6,3.4-7.6,7.6v181.4c0,4.2,3.4,7.6,7.6,7.6h136c4.2,0,7.6-3.4,7.6-7.6V188.7
		C327.3,184.6,323.9,181.2,319.7,181.2z M312.1,362.5H191.2v-45.3h120.9V362.5z M312.1,302.1H191.2v-45.3h120.9V302.1z M312.1,241.6
		H191.2v-45.3h120.9V241.6z"/>
	<path class="st0" d="M455.7,37.6H349.9c-12.5,0-22.6,10.2-22.7,22.7v60.5c0,12.5,10.2,22.6,22.7,22.7h30.2v15.1H365v15.1h75.6
		v-15.1h-15.1v-15.1h30.2c12.5,0,22.6-10.2,22.7-22.7V60.3C478.4,47.8,468.2,37.6,455.7,37.6z M410.4,158.5h-15.1v-15.1h15.1V158.5z
		 M463.3,120.7c0,4.2-3.4,7.6-7.6,7.6H349.9c-4.2,0-7.6-3.4-7.6-7.6v-7.6h120.9V120.7z M463.3,98.1H342.4V60.3
		c0-4.2,3.4-7.6,7.6-7.6h105.8c4.2,0,7.6,3.4,7.6,7.6V98.1z"/>
	<path class="st0" d="M470.8,445.7v-52.9c0-12.5-10.2-22.6-22.7-22.7h-90.7c-12.5,0-22.6,10.2-22.7,22.7v52.9
		c-4.2,0-7.6,3.4-7.6,7.6v15.1c0,12.5,10.2,22.6,22.7,22.7h105.8c12.5,0,22.6-10.2,22.7-22.7v-15.1C478.4,449,475,445.7,470.8,445.7
		z M349.9,392.8c0-4.2,3.4-7.6,7.6-7.6h90.7c4.2,0,7.6,3.4,7.6,7.6v52.9H349.9V392.8z M463.3,468.3c0,4.2-3.4,7.6-7.6,7.6H349.9
		c-4.2,0-7.6-3.4-7.6-7.6v-7.6h120.9V468.3z"/>
	<path class="st0" d="M138.3,385.2h-7.6v-7.6c0-12.5-10.2-22.6-22.7-22.7H47.7C35.2,355,25,365.1,25,377.7v90.7
		c0,12.5,10.2,22.6,22.7,22.7h90.7c12.5,0,22.6-10.2,22.7-22.7v-60.5C161,395.4,150.9,385.2,138.3,385.2z M86.8,475.9H47.7
		c-4.2,0-7.6-3.4-7.6-7.6v-90.7c0-4.2,3.4-7.6,7.6-7.6h60.5c4.2,0,7.6,3.4,7.6,7.6v7.6h-7.6c-12.5,0-22.6,10.2-22.7,22.7v60.5
		C85.5,470.9,85.9,473.5,86.8,475.9z M145.9,468.3c0,4.2-3.4,7.6-7.6,7.6h-30.2c-4.2,0-7.6-3.4-7.6-7.6v-60.5c0-4.2,3.4-7.6,7.6-7.6
		h30.2c4.2,0,7.6,3.4,7.6,7.6V468.3z"/>
	<path class="st0" d="M190.6,83.6c-3.8-20.5-23.4-34-43.9-30.2c-1.3,0.2-2.5,0.5-3.7,0.9c-8.5-10.5-21.4-16.7-34.9-16.6
		c-19.3,0.1-36.5,12.3-42.8,30.5C40.4,71,22.6,93.5,25.5,118.4c2.6,22.8,21.9,40,44.9,40.1h113.3c20.9,0.1,37.9-16.7,38-37.6
		C221.8,102.6,208.7,86.8,190.6,83.6z M183.7,143.4H70.3c-16.7-0.1-30.2-13.8-30-30.5c0.1-16.3,13.1-29.5,29.3-30
		c0.4,0.1,0.8,0.1,1.2,0.2c3.7,0.1,6.9-2.5,7.6-6c3.3-16.3,19.1-26.9,35.5-23.7c8.3,1.7,15.5,6.7,19.9,14c2,3.4,6.3,4.6,9.7,2.9
		c11.1-5.5,24.6-1,30.1,10.2c1.6,3.2,2.4,6.6,2.3,10.2c0,4.2,3.4,7.6,7.6,7.6c12.5,0,22.7,10.1,22.7,22.7S196.2,143.4,183.7,143.4z"
		/>
	<path class="st0" d="M206.4,211.4h15.1v15.1h-15.1V211.4z"/>
	<path class="st0" d="M244.1,211.4h15.1v15.1h-15.1V211.4z"/>
	<path class="st0" d="M281.9,211.4H297v15.1h-15.1V211.4z"/>
	<path class="st0" d="M206.4,271.9h15.1V287h-15.1V271.9z"/>
	<path class="st0" d="M244.1,271.9h15.1V287h-15.1V271.9z"/>
	<path class="st0" d="M281.9,271.9H297V287h-15.1V271.9z"/>
	<path class="st0" d="M206.4,332.3h15.1v15.1h-15.1V332.3z"/>
	<path class="st0" d="M244.1,332.3h15.1v15.1h-15.1V332.3z"/>
	<path class="st0" d="M281.9,332.3H297v15.1h-15.1V332.3z"/>
	<path class="st0" d="M410.4,241.6v-52.9h-15.1v45.3h-52.9v15.1h60.5C407,249.2,410.4,245.8,410.4,241.6z"/>
	<path class="st0" d="M342.4,294.5h52.9V355h15.1v-68c0-4.2-3.4-7.6-7.6-7.6h-60.5V294.5z"/>
	<path class="st0" d="M108.1,173.6H93v68c0,4.2,3.4,7.6,7.6,7.6H161v-15.1h-52.9V173.6z"/>
	<path class="st0" d="M93,287v52.9h15.1v-45.3H161v-15.1h-60.5C96.4,279.4,93,282.8,93,287z"/>
</g>
</svg>
