<?xml version="1.0" encoding="utf-8"?>
<!-- Generator: Adobe Illustrator 22.0.0, SVG Export Plug-In . SVG Version: 6.00 Build 0)  -->
<svg version="1.1" id="Capa_1" xmlns="http://www.w3.org/2000/svg" xmlns:xlink="http://www.w3.org/1999/xlink" x="0px" y="0px"
	 viewBox="0 0 500 510" style="enable-background:new 0 0 500 510;" xml:space="preserve">
<style type="text/css">
	.st0{fill:#FFFFFF;}
</style>
<g>
	<path class="st0" d="M409.2,10H90.8c-3.9,0-7,3.1-7,7v70.8c0,3.9,3.1,7,7,7h13.7l8.4,38.3c2.6,11.5,11.4,20.6,22.8,23.5v23.7
		c0,56.2,40.6,87.1,114.3,87.1s114.3-30.9,114.3-87.1v-23.7c11.4-2.9,20.3-11.9,22.8-23.4l8.4-38.3h13.7c3.9,0,7-3.1,7-7V17
		C416.2,13.1,413.1,10,409.2,10L409.2,10z M250,253.3c-45.7,0-100.3-12.7-100.3-73.1v-22.8h34.9v30.1c0,3.9,3.1,7,7,7s7-3.1,7-7
		v-30.1h24.9v30.1c0,3.9,3.1,7,7,7s7-3.1,7-7v-30.1h24.9v30.1c0,3.9,3.1,7,7,7s7-3.1,7-7v-30.1h24.9v30.1c0,3.9,3.1,7,7,7s7-3.1,7-7
		v-30.1h34.9v22.8C350.3,240.6,295.7,253.3,250,253.3L250,253.3z M373.4,130.1c-1.7,7.8-8.6,13.4-16.6,13.4H143.2
		c-8,0-14.9-5.5-16.6-13.4l-7.7-35.3h262.4L373.4,130.1z M402.2,80.8h-12.1c-0.1,0-0.2,0-0.3,0H110.2c-0.1,0-0.2,0-0.3,0H97.8V24
		h304.5L402.2,80.8z"/>
	<path class="st0" d="M328.5,48H367c3.9,0,7-3.1,7-7s-3.1-7-7-7h-38.5c-3.9,0-7,3.1-7,7S324.6,48,328.5,48z"/>
	<path class="st0" d="M365.5,430.8c-67.7,51.8-161.6,52.2-229.8,1.1c-3.1-2.3-7.5-1.7-9.8,1.4s-1.7,7.5,1.4,9.8
		c73.2,54.9,174,54.4,246.7-1.2c3.1-2.3,3.7-6.7,1.4-9.8C373,429.1,368.6,428.5,365.5,430.8L365.5,430.8L365.5,430.8z"/>
	<path class="st0" d="M153.4,397.1c-2.3,3.1-1.7,7.5,1.4,9.8l0,0c57,42.6,135.4,42,191.8-1.4c3.1-2.4,3.6-6.8,1.3-9.8
		s-6.8-3.6-9.8-1.3c-51.4,39.6-122.9,40.1-174.9,1.3C160.1,393.3,155.7,394,153.4,397.1L153.4,397.1z"/>
	<path class="st0" d="M180.9,360.7c-2.3,3.1-1.7,7.5,1.4,9.8l0,0c40.8,30.3,96.8,29.7,137-1.5c3-2.5,3.4-6.9,1-9.9
		c-2.4-2.9-6.6-3.4-9.6-1.2c-35.2,27.3-84.2,27.9-120,1.3C187.6,356.9,183.2,357.6,180.9,360.7L180.9,360.7L180.9,360.7z"/>
	<path class="st0" d="M249.8,347.2c15.3,0.1,30.2-5.1,42.2-14.7c3-2.4,3.5-6.8,1.1-9.8s-6.8-3.5-9.8-1.1l0,0
		c-18.9,15-45.5,15.6-65.1,1.4c-3.1-2.3-7.5-1.7-9.8,1.3c-2.3,3.1-1.7,7.5,1.3,9.8c0.1,0.1,0.2,0.1,0.2,0.2
		C221.5,342.7,235.5,347.2,249.8,347.2z"/>
</g>
</svg>
