<?xml version="1.0" encoding="utf-8"?>
<!-- Generator: Adobe Illustrator 22.0.0, SVG Export Plug-In . SVG Version: 6.00 Build 0)  -->
<svg version="1.1" id="Capa_1" xmlns="http://www.w3.org/2000/svg" xmlns:xlink="http://www.w3.org/1999/xlink" x="0px" y="0px"
	 viewBox="0 0 500 510" style="enable-background:new 0 0 500 510;" xml:space="preserve">
<style type="text/css">
	.st0{fill:#FFFFFF;}
</style>
<g id="Page-1">
	<g id="_x30_09---Locked" transform="translate(0 -1)">
		<g>
			<path id="Rectangle_1_" class="st0" d="M124.9,65.1l48.5-43.6l10.9,12.1l-48.5,43.6L124.9,65.1z"/>
		</g>
		<path id="Shape" class="st0" d="M467.5,341v-28.5c0.1-29.4-15-56.7-39.8-72.4s-56-17.5-82.5-4.8v-24.7h7.2
			c10.5,0.1,20-6.3,23.7-16.2c3.7-9.6,1.1-20.5-6.7-27.3L329,130.7V55.8c0-9-7.3-16.3-16.3-16.3h-32.6c-9,0-16.3,7.3-16.3,16.3v16.3
			l-56.3-50.5c-9.7-8.7-24.4-8.7-34.1,0c-2.2,1.9-3.1,4.9-2.5,7.8s2.7,5.2,5.5,6.1c2.8,0.9,5.8,0.3,8-1.7c3.5-3.1,8.8-3.1,12.3,0
			l162.1,145.6c2.7,2.3,3.6,6.1,2.3,9.4c-1.3,3.5-4.7,5.8-8.5,5.7H28.4c-3.8,0.1-7.2-2.2-8.5-5.7c-1.3-3.3-0.4-7.1,2.3-9.4
			l113.6-102c3.3-3,3.6-8.2,0.6-11.5c-1.4-1.6-3.5-2.6-5.6-2.7c-2.2-0.1-4.3,0.6-5.9,2.1l-113.6,102c-7.7,6.8-10.4,17.7-6.6,27.3
			c3.8,9.8,13.2,16.2,23.7,16.2h7.2v171.1c0,13.5,10.9,24.4,24.4,24.4h212v73.3c0,13.5,10.9,24.4,24.4,24.4h171.1
			c13.5,0,24.4-10.9,24.4-24.4V365.5C492,351.9,481.1,341,467.5,341L467.5,341z M280.1,55.8h32.6v60.3l-32.6-29.3V55.8z M431,263.5
			c13,13,20.3,30.6,20.3,49V341H435v-28.5c0-29.3-23.7-53-53-53s-53,23.7-53,53V341h-16.3v-28.5c0-28,16.9-53.3,42.8-64
			C381.4,237.7,411.2,243.6,431,263.5L431,263.5z M345.3,341v-28.5c0-20.3,16.4-36.7,36.7-36.7c20.3,0,36.7,16.4,36.7,36.7V341
			H345.3z M149.7,389.9v-81.5c0-22.5,18.2-40.7,40.7-40.7s40.7,18.2,40.7,40.7v81.5H149.7z M247.5,389.9v-81.5c0-31.5-25.5-57-57-57
			s-57,25.5-57,57v81.5H60.1c-4.5,0-8.1-3.6-8.1-8.1V210.6h277v34.8c-20.6,16.2-32.6,40.9-32.6,67.1V341
			c-13.5,0-24.4,10.9-24.4,24.4v24.4h-24.5V389.9z M475.7,479.6c0,4.5-3.6,8.1-8.1,8.1H296.4c-4.5,0-8.1-3.6-8.1-8.1V365.5
			c0-4.5,3.6-8.1,8.1-8.1h171.1c4.5,0,8.1,3.6,8.1,8.1v114.1H475.7z"/>
		<path id="Shape_1_" class="st0" d="M404.7,381.5c-8.9-7-20.4-9.6-31.4-6.9c-12.8,3.1-22.9,12.8-26.5,25.4
			c-3.7,12.6-0.3,26.2,8.9,35.7l-5.3,13.3c-2,5-1.4,10.7,1.6,15.2s8.1,7.2,13.5,7.2h33c5.4,0,10.5-2.7,13.5-7.2s3.7-10.2,1.6-15.2
			l-5.3-13.3c7.2-7.4,10.9-17.6,10.3-27.9S412.9,388,404.7,381.5z M391,436.4l7.4,18.7h-33l7.4-18.7c1.4-3.5,0.2-7.4-2.8-9.6
			c-6.7-4.8-9.8-13.1-8.1-21.1c1.7-7.5,7.5-13.4,14.9-15.2c1.6-0.4,3.3-0.6,5-0.6c4.6,0,9,1.5,12.6,4.4c5,4,7.9,10.1,7.7,16.5
			s-3.3,12.3-8.5,16.1C390.8,429,389.6,433,391,436.4z"/>
	</g>
</g>
</svg>
