<?xml version="1.0" encoding="utf-8"?>
<!-- Generator: Adobe Illustrator 22.0.0, SVG Export Plug-In . SVG Version: 6.00 Build 0)  -->
<svg version="1.1" id="Capa_1" xmlns="http://www.w3.org/2000/svg" xmlns:xlink="http://www.w3.org/1999/xlink" x="0px" y="0px"
	 viewBox="0 0 500 510" style="enable-background:new 0 0 500 510;" xml:space="preserve">
<style type="text/css">
	.st0{fill:#FFFFFF;}
</style>
<path class="st0" d="M409.3,185.9c0-84.4-68.7-153.1-153.1-153.1c-43,0-84.3,18.3-113.3,50.2c-2.6,2.8-2.4,7.2,0.5,9.8
	c2.8,2.6,7.2,2.4,9.8-0.5c26.3-29,63.9-45.6,103-45.6c76.7,0,139.2,62.4,139.2,139.2c-1.1,44.1-23.5,88.6-57.1,118.8
	c-2.7,2.7-2.8,7.1-0.1,9.8c2.1,2,6.2,3.2,9.8,0.1C384.2,282,408.1,234.1,409.3,185.9z"/>
<path class="st0" d="M325.5,328.1c-3-2.4-7.3-2-9.8,0.9c-13.5,16.4-21,30.2-22.9,42.2h-73.1c-2.9-18.5-19.1-41.3-50.2-71.2
	c-26-25-43.3-56.5-49.9-91.2c-6.4-31.5,0-63.5,15.3-91.3c1.9-3.3,0.7-7.6-2.6-9.4c-3.3-1.9-7.6-0.7-9.4,2.6
	c-17,30.8-23.9,65.1-16.9,100.8c7.1,37.5,25.8,71.6,53.9,98.6c27.6,26.5,43.1,47.5,45.9,62.3c-7.8,2.7-13.4,10.1-13.4,18.8V456
	c0,13.8,11,25,24.7,25.4l2.2,11.8c1.4,7.7,8.1,13.2,15.9,13.2h42c7.8,0,14.5-5.6,15.9-13.2l2.2-11.8C309,481,320,469.8,320,456
	v-64.7c0-8.7-5.6-16-13.3-18.8c1.5-7.3,6.4-18.4,19.7-34.6C328.9,334.9,328.5,330.6,325.5,328.1L325.5,328.1z"/>
<path class="st0" d="M306.2,395.4h-99.9v-4.2c0-3.3,2.7-6,6-6h87.9c3.3,0,6,2.7,6,6V395.4z"/>
<path class="st0" d="M294.6,467.5h-76.8c-5.9,0-10.8-4.5-11.5-10.2H306C305.4,463.1,300.5,467.5,294.6,467.5z"/>
<path class="st0" d="M286.3,141.9c-22.6-16.3-58.1-10.5-73.9,13.7c-12.9,18.3-12.5,45.2,2.3,63.3c2.4,3,6.8,3.5,9.8,1.1
	s3.5-6.8,1.1-9.8c-10.2-12.3-11.7-32.7-1.7-46.8c11.2-17.1,37-22.7,54.6-10.1c17.1,11.2,22.7,37,10.1,54.6
	c-8.5,12.3-23.7,19.1-39.4,16.4c-3.8-0.7-7.4,1.8-8.1,5.6c-0.7,3.8,1.8,7.4,5.6,8.1c18.9,3.8,42.1-5,53.3-22.2
	C316.4,193.2,310.5,157.6,286.3,141.9z"/>
<path class="st0" d="M349.9,238.2c4.3,1.2,10.6-1.4,11.9-7.5l8.9-39.2c1.2-4.7-1.4-10.6-7.5-11.9l-15.2-3.5
	c-0.7-7.2-2.3-14.3-4.7-21.1l12.5-10c4.3-3.4,5-9.7,1.6-14l-25.1-31.4c-3.4-4.3-9.7-5-14-1.6L306,108c-6-3.9-12.5-7-19.2-9.4V82.4
	c0-5.5-4.5-10-10-10h-40.2c-5.5,0-10,4.5-10,10v15.8c-6.8,2.3-13.2,5.4-19.3,9.2l-12.6-10.1c-4.3-3.4-10.6-2.7-14,1.6l-25.1,31.4
	c-3.4,4.3-2.7,10.6,1.6,14l12.2,9.7c-2.5,6.8-4.2,13.8-5,21l-15.5,3.5c-4.5,1.3-8.9,5.1-7.5,11.9l8.9,39.2c1.2,5.4,6.6,8.7,11.9,7.5
	l15-3.4c3.8,6.2,8.3,11.9,13.5,17.1l-6.8,14.1c-2.4,4.9-0.3,10.9,4.6,13.3l36.2,17.4c4.9,2.4,10.9,0.3,13.3-4.7l6.6-13.7
	c7.3,0.9,14.6,1,21.9,0.1l6.8,14c2.1,4.2,6.6,7.3,13.3,4.6l36.2-17.5c4.9-2.4,7-8.3,4.6-13.3l-6.7-13.8c5.2-5.1,9.8-10.8,13.7-17
	L349.9,238.2z M324.1,225.3c-3.9,6.7-8.9,12.9-14.6,18.2c-3.3,3-4.2,7.7-2.2,11.7l6.2,12.9l-29.2,14L278,269c-1.7-3.5-5.2-5.6-9-5.6
	c-7,0.9-16.2,1.4-25,0c-4.3-0.7-8.6,1.6-10.5,5.5l-6.2,12.8l-29.2-14l6.3-13.2c1.9-3.9,1-8.6-2.2-11.6c-5.7-5.4-10.6-11.6-14.4-18.4
	c-2.2-3.9-6.6-5.8-10.9-4.8l-14,3.2l-7.2-31.6l14.4-3.3c4.2-1,7.3-4.5,7.7-8.9c0.7-7.7,2.5-15.3,5.3-22.5c1.7-4.1,0.5-8.8-3-11.5
	l-11.4-9.1l20.2-25.3l11.8,9.4c3.4,2.7,8.1,2.9,11.8,0.5c6.4-4.3,13.4-7.6,20.8-9.9c4.2-1.3,7.1-5.1,7.1-9.5V86.4h32.4v15.1
	c0,4.4,2.8,8.2,7,9.5c7.3,2.3,14.3,5.7,20.6,10.1c3.7,2.5,8.4,2.3,11.9-0.4l11.5-9.2l20.2,25.3l-11.6,9.3c-3.4,2.7-4.6,7.3-3.1,11.4
	c2.8,7.2,4.5,14.8,5.1,22.6c0.3,4.4,3.4,8,7.7,9l14.1,3.2l-7.2,31.6l-14.3-3.3C330.6,219.6,326.3,221.5,324.1,225.3L324.1,225.3z"/>
<path class="st0" d="M421.3,102.2c14,0,25.4-11.4,25.4-25.4s-11.4-25.4-25.4-25.4s-25.4,11.4-25.4,25.4S407.3,102.2,421.3,102.2z
	 M421.3,65.2c6.4,0,11.6,5.2,11.6,11.6s-5.2,11.6-11.6,11.6s-11.6-5.2-11.6-11.6S414.9,65.2,421.3,65.2z"/>
<path class="st0" d="M421.3,269.6c-14,0-25.4,11.4-25.4,25.4s11.4,25.4,25.4,25.4s25.4-11.4,25.4-25.4
	C446.8,281,435.3,269.6,421.3,269.6z"/>
<path class="st0" d="M460.9,153.8c-17.7,0-32.1,14.4-32.1,32.1s14.4,32.1,32.1,32.1s32.1-14.4,32.1-32.1S478.6,153.8,460.9,153.8z"
	/>
<path class="st0" d="M91.2,102.2c14,0,25.4-11.4,25.4-25.4s-11.4-25.4-25.4-25.4S65.7,62.7,65.7,76.8S77.1,102.2,91.2,102.2z
	 M91.2,65.2c6.4,0,11.6,5.2,11.6,11.6s-5.2,11.6-11.6,11.6s-11.6-5.2-11.6-11.6S84.8,65.2,91.2,65.2z"/>
<circle class="st0" cx="91.2" cy="295" r="25.4"/>
<circle class="st0" cx="91.2" cy="295" r="11.6"/>
<circle class="st0" cx="51.6" cy="185.9" r="32.1"/>
<circle class="st0" cx="51.6" cy="185.9" r="18.3"/>
</svg>
