<?xml version="1.0" encoding="utf-8"?>
<!-- Generator: Adobe Illustrator 22.0.0, SVG Export Plug-In . SVG Version: 6.00 Build 0)  -->
<svg version="1.1" id="Capa_1" xmlns="http://www.w3.org/2000/svg" xmlns:xlink="http://www.w3.org/1999/xlink" x="0px" y="0px"
	 viewBox="0 0 500 510" style="enable-background:new 0 0 500 510;" xml:space="preserve">
<style type="text/css">
	.st0{fill:#FFFFFF;}
</style>
<g>
	<path class="st0" d="M275.4,453c0-1.2,0-2.8,0-4.4c0-21.4,0-42.7,0-64.1c0-15.7,9.9-25.5,25.6-25.5c14.6,0,29.3,0,43.9,0
		c15.4,0,25.2,9.9,25.2,25.4c0,30.6,0,61.2,0,91.7c0,15.1-10,24.9-25.1,25c-52.9,0-105.9,0.1-158.8,0c-25.9,0-47-15.8-54.1-40.7
		c-4.7-16.6-9-33.3-12.9-50c-1.4-6-1.4-12.4-1.5-18.6c-0.1-7.3,1.9-11.8,8.9-22.3c-2.2-1-4.4-2-6.5-3c-28-14.1-44.5-36.5-49.1-67.6
		c-0.2-1.4-1.4-3.4-2.6-3.9c-29.9-12.4-37.9-36.1-20.8-63.6c-9-4.5-9.7-12.9-8.9-21.5c0.7-7.1-1-11.2-8.2-15
		c-21.4-11.2-29.4-37.6-18.9-59.5c7.8-16.3,16-32.4,24.2-48.5c3.8-7.7,10-11.9,18.5-11.9c8.7,0,15,4.2,18.9,11.9
		c6.8,13.6,13.6,27.3,20.7,41.3c1.6-1.1,2.9-1.9,4.2-2.8c18-12.3,37.8-19,59.6-18.9c16.1,0.1,32.5-0.8,48.1,2.1
		c41.3,7.6,68.4,32.7,82.3,72.2c0.6,1.6,1.1,3.1,1.7,4.7c0.4,0,0.9-0.1,1.3-0.1c0.3-1.3,0.7-2.6,0.9-3.9c5.7-43,42.9-75.2,86.6-75
		c43.1,0.2,80.5,32.8,85.1,75.4c1.7,15.8,0.9,31.8,1.1,47.8c0.1,8.2,0,16.4,0,24.7c0,7,2.4,9.5,9.2,10.1
		c13.1,1.1,22.7,11.5,22.3,24.3c-0.3,12.7-10.5,22.9-23.6,23c-18.6,0.2-37.1,0.1-55.8,0.1c-6.1,19.7-18.8,31.7-39.7,31.3
		c-20.2-0.3-32.5-12.1-38.3-31.3c-21.5,0-43,0-64.6,0.1c-1,0-2.6,1.2-3,2.3c-13.5,31.6-22.1,40.5-54.5,56.3c2.7,2,5.5,3.7,8,5.7
		c19.2,15.1,30.8,34.7,33.9,59c0.4,2.9,1.8,4.3,4.1,6C267.3,444.5,271.1,448.8,275.4,453z M276.4,295.9c20.2,0,40.4,0,60.6,0
		c44.6,0,89.1,0,133.7,0c6,0,9.5-2.8,9.8-7.4c0.3-4.7-3.1-7.8-8.9-8.3c-13.2-1.1-22.5-10.8-22.5-24.1c-0.1-20.2,0-40.4-0.1-60.7
		c0-3.9-0.2-7.9-0.8-11.8c-4.7-33.5-32.2-59.1-65.6-61.1c-33.9-2.1-64.9,19.6-72.9,52.6c-2.8,11.8-2.4,24.4-2.6,36.7
		c-0.1,8.2-1.2,15.4-9.1,19.6C316.6,256.2,304.3,287.5,276.4,295.9z M86.8,295.8c0.9,29.1,28.1,58.5,58.9,62
		c14.3,1.6,28.8,1.3,43.3,1.1c23.1-0.2,41.9-9.9,56-28.1c8.1-10.4,12.9-22.2,14-35.8c-2.9,0.3-5.3,0.8-7.7,0.8
		c-14.8,0.1-29.6,0.1-44.3,0c-10.1,0-17.6-4.7-22.2-13.6c-2.3-4.4-4.2-8.9-6.7-13.1c-1.1-1.9-3.4-4.2-5.2-4.3
		c-1.8,0-4.1,2.2-5.3,4.1c-2.8,4.6-4.9,9.6-7.5,14.4c-4,7.3-10.2,12-18.4,12.3C123.5,296.1,105.3,295.8,86.8,295.8z M259.6,485.2
		c0-7.3,0-14.2,0-21.1c0-7.7-2.6-10.4-10.3-10.4c-20.5,0-41.1,0-61.6,0c-1.8,0-3.5,0-5.5,0c-0.9-4.3-1.7-8.1-2.5-12
		c-3.6-17.7-7-35.4-10.8-53.1c-1.9-8.6-9.5-14.1-18-13.8c-8.4,0.2-15.9,6.5-17.2,14.9c-0.6,3.7-0.7,7.7,0.1,11.3
		c4.7,19.8,8.9,39.8,15.1,59.1c4.9,15.4,17.4,24.3,33.6,24.9C207.9,485.9,233.4,485.2,259.6,485.2z M323.1,485.3
		c7.3,0,14.4,0,21.4,0s9.7-2.8,9.8-10c0-30.2,0-60.5,0-90.7c0-7-2.8-9.8-9.9-9.8c-14.5,0-28.9,0-43.4,0c-7,0-9.8,2.8-9.8,9.9
		c0,21.5,0,43,0,64.6c0,1.4,0.2,2.8,0.3,4.2C316.8,455.4,320.7,459.3,323.1,485.3z M173.3,232.8L173.3,232.8c-25.6,0-51.3,0-76.9,0
		c-7.5,0-10.3,2.7-10.3,9.9c0,9.4-0.1,18.7,0,28.1c0,6.4,2.9,9.2,9.4,9.3c14.1,0,28.3-0.1,42.4,0c4.5,0,7.4-1.9,9.3-5.9
		c2.1-4.5,4.4-8.8,6.6-13.2c3.9-7.9,10.2-12.5,19.1-12.4c8.9,0,15.1,4.6,19,12.6c2.2,4.6,4.6,9.1,6.8,13.7c1.8,3.6,4.6,5.3,8.6,5.3
		c14.3-0.1,28.6,0,42.9,0c6.4,0,9.3-2.9,9.3-9.4c0.1-9,0-18.1,0-27.1c0-8.4-2.4-10.8-10.9-10.8C223.6,232.8,198.4,232.8,173.3,232.8
		z M54.4,185.4c23.7,0,38.4-22.7,28.3-44.1c-7.4-15.6-15.3-30.9-23.2-46.2c-1-1.9-3.4-3.9-5.3-4c-1.5-0.1-3.8,2.2-4.8,4
		c-7.8,15.2-15.6,30.4-23,45.7C16,162.5,30.5,185.4,54.4,185.4z M211.8,185.2c-4.3-26.2-19.6-44.7-39-61c-19.5,16.5-34.6,35-38.9,61
		C160,185.2,185.6,185.2,211.8,185.2z M181.1,375.3c1.3,4.3,3,8.6,3.9,13c3.3,15.4,6.3,30.8,9.3,46.3c0.5,2.7,1.5,3.5,4.1,3.4
		c5.9-0.2,11.8,0,17.7,0c8.8,0,17.7,0,26.5,0C242.8,408.7,206,371.7,181.1,375.3z M227.7,185.2c15.1,0,29.8,0,44.6,0
		c-3.2-28-47.4-63.9-76.4-61.6C212.6,141.1,224.7,160.8,227.7,185.2z M149.2,123.5c-17.8,1.1-33.3,7.9-47,19c-1,0.8-1,3.1-1.1,4.8
		c-0.2,5.4,0.9,11-0.4,16.1c-2,7.6-5.5,14.7-8.3,21.8c7.9,0,16.6,0,25.6,0C120.9,160.7,132.9,141.2,149.2,123.5z M275.4,278
		c10.2-3,16.7-13.1,15.8-23.7c-0.8-9.5-8.3-18.4-15.8-19.3C275.4,249.3,275.4,263.5,275.4,278z M70.4,278.3c0-14.9,0-29.3,0-43.5
		c-8.1,1.7-15.1,10.2-15.9,19.7C53.7,264.8,59.7,274.3,70.4,278.3z M399.5,312c-14.5,0-28.7,0-43,0c2.7,9,11.6,15.4,21.2,15.5
		C387.7,327.5,396.7,321.2,399.5,312z M306.9,485.3c0-3.1,0.2-5.7,0-8.3c-0.3-3.9-2.6-6.9-6.3-7.1c-8.3-0.4-16.6-0.1-24.9-0.1
		c0,5.4,0,10.2,0,15.3c0.8,0.1,1.4,0.3,2.1,0.3C287.2,485.3,296.7,485.3,306.9,485.3z M149.3,216.7c5.4,0,10.2,0,15.3,0
		c0-5.2,0-10.2,0-15.2c-5.2,0-10.2,0-15.3,0C149.3,206.7,149.3,211.5,149.3,216.7z M181.3,216.7c5.4,0,10.2,0,15.3,0
		c0-5.2,0-10.2,0-15.2c-5.2,0-10.2,0-15.3,0C181.3,206.7,181.3,211.5,181.3,216.7z M213.3,216.7c5.4,0,10.2,0,15.3,0
		c0-5.2,0-10.2,0-15.2c-5.2,0-10.2,0-15.3,0C213.3,206.7,213.3,211.5,213.3,216.7z M245.3,216.7c5.4,0,10.2,0,15.3,0
		c0-5.2,0-10.2,0-15.2c-5.2,0-10.2,0-15.3,0C245.3,206.7,245.3,211.5,245.3,216.7z M277.3,216.7c5.4,0,10.2,0,15.3,0
		c0-5.2,0-10.2,0-15.2c-5.2,0-10.2,0-15.3,0C277.3,206.7,277.3,211.5,277.3,216.7z M133,216.8c0-5.4,0-10.4,0-15.3
		c-5.2,0-10.1,0-15.1,0c0,5.2,0,10.1,0,15.3C123,216.8,127.8,216.8,133,216.8z M101.6,201.5c-5.4,0-10.3,0-15.2,0
		c0,5.2,0,10.2,0,15.1c5.3,0,10.2,0,15.2,0C101.6,211.4,101.6,206.6,101.6,201.5z M70.2,201.5c-5.5,0-10.5,0-15.4,0
		c0,5.3,0,10.3,0,15.2c5.2,0,10.1,0,15.1,0c0.1-0.8,0.3-1.4,0.3-2.1C70.2,210.4,70.2,206.2,70.2,201.5z"/>
	<path class="st0" d="M328,48.1c-3.7-3.9-7.2-7.5-10.7-11.1c30.6-32.1,87.2-34.9,121.6-0.1c-3.6,3.4-7.3,6.9-11.3,10.7
		c-13.4-12.8-30.1-19.9-49.4-19.9C358.8,27.6,342.3,34.6,328,48.1z"/>
	<path class="st0" d="M416.6,59.5c-3.6,3.7-7,7.3-10.4,10.8c-16.4-14-37.3-15.7-56.3,0c-3.4-3.5-6.9-7-10.3-10.5
		C356.8,39.5,394.9,36.5,416.6,59.5z"/>
	<path class="st0" d="M394.4,81.9c-3.7,3.6-7.2,7-10,9.8c-4.4,0-8.3,0-12.9,0c-2.6-2.7-6-6.2-9.5-9.7
		C368.6,73,384.7,72.7,394.4,81.9z"/>
	<path class="st0" d="M378.1,138c15.4,0.1,25.7,12.3,23.1,27.4c-2.1,12.1-3.9,24.3-6.1,36.4c-1.8,9.6-8.4,15.2-17.2,15.1
		c-8.5-0.1-15.1-5.8-16.8-15c-2.3-12.7-4.6-25.5-6.5-38.3C352.4,149.7,363.3,138,378.1,138z M378,202c0.9-2,1.6-2.8,1.7-3.7
		c2-12,4.2-23.9,5.8-35.9c0.3-2.3-1.1-6.2-2.8-7c-2.6-1.2-6.6-1.4-9.1-0.2c-1.9,0.9-3.4,4.9-3.1,7.3c1.5,11.9,3.7,23.6,5.7,35.4
		C376.4,199,377.1,199.9,378,202z"/>
	<path class="st0" d="M401.7,256.6c-0.1,12.9-10.7,23.5-23.6,23.5c-13.1,0-23.8-10.8-23.7-23.9c0.1-12.9,10.7-23.4,23.6-23.4
		C391.1,232.8,401.8,243.5,401.7,256.6z M385.9,256.3c-0.1-4.3-3.7-7.8-8-7.7s-7.8,3.7-7.7,8c0.1,4.3,3.7,7.8,8,7.7
		C382.4,264.2,385.9,260.5,385.9,256.3z"/>
	<path class="st0" d="M218.8,331c-4.5,3-8.6,5.8-13,8.7c-7.6-12.5-18.2-20.1-33-20c-14.5,0-25.2,7.3-32.8,20
		c-4.4-2.9-8.6-5.7-13.1-8.6c9.9-16.5,23.9-26,42.8-27.1C191.1,302.8,207.2,312.4,218.8,331z"/>
	<path class="st0" d="M306.8,398.5c-4.2-0.1-7.7-3.7-7.7-7.9c0-4.5,3.8-8.1,8.3-7.8c4.2,0.2,7.6,3.9,7.5,8.1
		C314.7,395.1,311.1,398.6,306.8,398.5z"/>
	<path class="st0" d="M314.8,422.1c0,4.2-3.4,7.8-7.7,7.9c-4.4,0.1-8.2-3.6-8-8c0.1-4.3,3.7-7.7,7.9-7.7
		C311.3,414.3,314.8,417.9,314.8,422.1z"/>
</g>
<path class="st0" d="M227.2,250c5.2,0,10.3-0.1,15.4,0c5.1,0.1,8.4,3.4,8.4,8c0,4.5-3.3,7.9-8.4,8c-10.5,0.1-20.9,0.1-31.4,0
	c-5-0.1-8.3-3.7-8.2-8.2c0.1-4.3,3.4-7.6,8.1-7.7C216.6,249.9,221.9,250,227.2,250z"/>
<path class="st0" d="M114.7,266c-5,0-10,0.1-14.9,0c-5.3-0.1-8.8-3.5-8.6-8.2c0.1-4.5,3.5-7.7,8.7-7.7c10.3-0.1,20.6-0.1,30.9,0
	c5.1,0.1,8.4,3.4,8.4,8c0,4.5-3.3,7.8-8.4,8C125.3,266.1,120,266,114.7,266z"/>
</svg>
