<?xml version="1.0" encoding="utf-8"?>
<!-- Generator: Adobe Illustrator 22.0.0, SVG Export Plug-In . SVG Version: 6.00 Build 0)  -->
<svg version="1.1" id="Capa_1" xmlns="http://www.w3.org/2000/svg" xmlns:xlink="http://www.w3.org/1999/xlink" x="0px" y="0px"
	 viewBox="0 0 500 510" style="enable-background:new 0 0 500 510;" xml:space="preserve">
<style type="text/css">
	.st0{fill:#FFFFFF;}
</style>
<path class="st0" d="M492,281.6v-7.9c0-8.7-7.1-15.7-15.7-15.7H444l-10.2-54.5c-3.5-18.6-19.8-32.1-38.7-32.1H226.9
	c-18.9,0-35.2,13.5-38.7,32.1L178,258h-32.3c-8.7,0-15.7,7.1-15.7,15.7v7.9c0,16.3,12.6,29.7,28.5,31.2l-13.7,13.7
	c-4.5,4.5-6.9,10.4-6.9,16.7V407c0,7.9,3.9,15.3,10.5,19.6l5.2,3.5v48.3c0,13,10.6,23.6,23.6,23.6h39.4c13,0,23.6-10.6,23.6-23.6
	v-23.6h141.7v23.6c0,13,10.6,23.6,23.6,23.6h39.4c13,0,23.6-10.6,23.6-23.6v-48.3l5.2-3.5c6.6-4.4,10.5-11.7,10.5-19.6v-63.8
	c0-6.3-2.5-12.2-6.9-16.7l-13.7-13.7C479.4,311.3,492,298,492,281.6z M468.3,407.5h-78.6c-10.2,0-18.9-6.6-22.2-15.7h35.3
	c8.5,0,16.9-2.8,23.6-7.9l42-31.5V407C468.4,407.2,468.3,407.4,468.3,407.5z M153.5,407v-54.5l42,31.5c6.8,5.1,15.2,7.9,23.6,7.9
	h35.3c-3.3,9.1-11.9,15.7-22.2,15.7h-78.6C153.6,407.4,153.5,407.2,153.5,407z M232.3,423.3c2.7,0,5.3-0.3,7.9-0.8V439h-42.5
	c-1.6,0-3.1-0.5-4.4-1.3l-21.6-14.4L232.3,423.3L232.3,423.3z M255.9,415.2c7.5-5.7,13-13.9,14.9-23.4h0.8V439h-15.7L255.9,415.2
	L255.9,415.2z M287.4,391.8h15.7V439h-15.7V391.8z M318.8,391.8h15.7V439h-15.7V391.8z M350.3,391.8h0.8c1.9,9.5,7.4,17.7,14.9,23.4
	V439h-15.7L350.3,391.8L350.3,391.8z M381.8,422.5c2.5,0.5,5.2,0.8,7.9,0.8h60.6l-21.6,14.4c-1.3,0.9-2.8,1.3-4.4,1.3h-42.5V422.5z
	 M417,371.3c-4.1,3-9.1,4.7-14.2,4.7H219.1c-5.1,0-10.1-1.7-14.2-4.7l-47.3-35.5l20.5-20.5l13.1,8.7c35.6,23.7,77,36.3,119.7,36.3
	c22.2,0,44.2-3.4,65.4-10.1l-4.8-15c-19.6,6.2-40,9.4-60.6,9.4c-38.3,0-75.3-10.9-107.5-31.5h215.2c-9.9,6.3-20.4,11.9-31.3,16.3
	l6,14.6c13-5.4,25.6-12.1,37.4-19.9l13.1-8.7l20.5,20.5L417,371.3z M203.7,206.4c2.1-11.2,11.9-19.3,23.2-19.3H395
	c11.3,0,21.1,8.1,23.2,19.3l17,90.9H420L406.5,216c-1.3-7.6-7.8-13.2-15.5-13.2h-16.9v15.7H391l13.1,78.7H217.9l13.1-78.7h127.1
	v-15.7h-127c-7.7,0-14.3,5.5-15.5,13.2L202,297.4h-15.3L203.7,206.4z M145.7,281.6v-7.9h29.4l-4.4,23.6h-9.2
	C152.7,297.4,145.7,290.3,145.7,281.6z M224.4,478.4c0,4.3-3.5,7.9-7.9,7.9h-39.4c-4.3,0-7.9-3.5-7.9-7.9v-37.8l15.3,10.2
	c3.9,2.6,8.4,4,13.1,4h26.7L224.4,478.4L224.4,478.4z M452.6,478.4c0,4.3-3.5,7.9-7.9,7.9h-39.4c-4.3,0-7.9-3.5-7.9-7.9v-23.6h26.7
	c4.7,0,9.2-1.4,13.1-4l15.3-10.2L452.6,478.4L452.6,478.4z M476.3,281.6c0,8.7-7.1,15.7-15.7,15.7h-9.2l-4.4-23.6h29.4L476.3,281.6
	L476.3,281.6z"/>
<path class="st0" d="M82.7,116.3h19.7c15.2,0,27.5-12.4,27.5-27.5s-12.4-27.5-27.5-27.5H67v86.6h15.7V116.3z M82.7,77h19.7
	c6.5,0,11.8,5.3,11.8,11.8s-5.3,11.8-11.8,11.8H82.7V77z"/>
<path class="st0" d="M31.2,162.5c14,14,24.7,30.5,31.6,49.1l9.8,26.2c2.8,7.4,9.9,12.4,17.8,12.4c8.1,0,15.4-5.2,18-12.9l7.6-22.1
	c7.1-20.6,19.2-39.5,34.9-54.6c16.6-16,26.2-38.4,26.2-61.4C177.2,52.2,139,14,92,14h-2.9C42.2,14,4,52.2,4,99.1v0.9
	c0,22.7,8.9,44.1,24.9,60.2L31.2,162.5z M19.7,99.1c0-38.3,31.1-69.4,69.4-69.4H92c38.3,0,69.4,31.1,69.4,69.4
	c0,18.8-7.8,37-21.3,50.1c-17.5,16.8-31,37.9-38.9,60.9l-7.6,22.1c-0.9,2.6-5.3,2.7-6.2,0.1l-9.8-26.1C69.8,185.4,58,167,42.3,151.4
	l-2.3-2.3c-13-13.1-20.3-30.5-20.3-49V99.1z"/>
<path class="st0" d="M43.4,486.3h15.7V502H43.4V486.3z"/>
<path class="st0" d="M43.4,454.8h15.7v15.7H43.4V454.8z"/>
<path class="st0" d="M10.8,352.5h32.5V439H59V336.7H44.4L67,309.6l22.6,27.1H74.8V502h15.7V352.5H123l-56-67.4L10.8,352.5z"/>
<path class="st0" d="M286.4,146.9l11.1,11.1c3-3,8.2-3,11.1,0l11.1-11.1C310.9,137.9,295.3,137.9,286.4,146.9z"/>
<path class="st0" d="M342.1,124.6c-10.4-10.4-24.2-16.1-39-16.1s-28.5,5.7-39,16.1l11.1,11.1c7.4-7.4,17.3-11.5,27.8-11.5
	s20.4,4.1,27.8,11.5L342.1,124.6z"/>
<path class="st0" d="M364.3,102.3C348,86,326.2,77,303.1,77s-44.9,9-61.2,25.4l11.1,11.1c13.4-13.4,31.2-20.7,50.1-20.7
	s36.7,7.4,50.1,20.7L364.3,102.3z"/>
<path class="st0" d="M303.1,61.2c27.3,0,53,10.6,72.3,30l11.1-11.1c-22.3-22.3-51.9-34.6-83.5-34.6s-61.2,12.3-83.5,34.6l11.1,11.1
	C250.1,71.9,275.8,61.2,303.1,61.2z"/>
</svg>
