<?xml version="1.0" encoding="utf-8"?>
<!-- Generator: Adobe Illustrator 22.0.0, SVG Export Plug-In . SVG Version: 6.00 Build 0)  -->
<svg version="1.1" id="Capa_1" xmlns="http://www.w3.org/2000/svg" xmlns:xlink="http://www.w3.org/1999/xlink" x="0px" y="0px"
	 viewBox="0 0 500 510" style="enable-background:new 0 0 500 510;" xml:space="preserve">
<style type="text/css">
	.st0{fill:#FFFFFF;}
</style>
<path class="st0" d="M360.6,403c-0.3,0-0.5,0-0.8,0c-4.1-0.2-7.9-2.1-10.6-5.2l-35.4-40.4l22.8-20l25.1,28.7l54.2-50.1l20.6,22.3
	L371,398.9C368.1,401.5,364.4,403,360.6,403L360.6,403z"/>
<path class="st0" d="M370.7,504c-2.1,0-4.2-0.4-6.1-1.3c-4.7-2.1-115.1-52.1-115.1-154.6v-74.3c0-6.4,4-12.1,10.1-14.3L365.7,222
	c3.3-1.2,6.8-1.2,10.1,0l106.1,37.5c6.1,2.1,10.1,7.9,10.1,14.3v74.3c0,102.5-110.4,152.5-115.1,154.6
	C374.9,503.6,372.9,504,370.7,504L370.7,504z M279.8,284.5v63.6c0,70.6,69.6,112.6,90.9,123.8c21.3-11.3,91-53.5,91-123.8v-63.6
	l-90.9-32.2L279.8,284.5z"/>
<path class="st0" d="M229.3,443.4H22.2c-8.4,0-15.2-6.8-15.2-15.2v-90.9c0-8.4,6.8-15.2,15.2-15.2h179.3v30.3H37.3V413h192V443.4z"
	/>
<path class="st0" d="M133.3,352.4H103V34.2c0-8.4,6.8-15.2,15.2-15.2h101c8.4,0,15.2,6.8,15.2,15.2v262.7H204V49.3h-70.7V352.4z"/>
<path class="st0" d="M77.7,337.3H47.4V89.7c0-8.4,6.8-15.2,15.2-15.2h55.6v30.3H77.7V337.3z"/>
<path class="st0" d="M62.6,135.2h55.6v30.3H62.6V135.2z"/>
<path class="st0" d="M62.6,195.8h55.6v30.3H62.6V195.8z"/>
<path class="st0" d="M62.6,256.4h55.6v30.3H62.6V256.4z"/>
<path class="st0" d="M168.7,256.4h65.7v30.3h-65.7V256.4z"/>
<path class="st0" d="M168.7,195.8h65.7v30.3h-65.7V195.8z"/>
<path class="st0" d="M168.7,135.2h65.7v30.3h-65.7V135.2z"/>
<path class="st0" d="M168.7,74.6h65.7v30.3h-65.7V74.6z"/>
</svg>
