<?xml version="1.0" encoding="utf-8"?>
<!-- Generator: Adobe Illustrator 22.0.0, SVG Export Plug-In . SVG Version: 6.00 Build 0)  -->
<svg version="1.1" id="Capa_1" xmlns="http://www.w3.org/2000/svg" xmlns:xlink="http://www.w3.org/1999/xlink" x="0px" y="0px"
	 viewBox="0 0 500 510" style="enable-background:new 0 0 500 510;" xml:space="preserve">
<style type="text/css">
	.st0{fill:#FFFFFF;}
</style>
<g>
	<path class="st0" d="M430.8,62.3h-26.1c-3.7,0-6.7,3-6.7,6.7s3,6.7,6.7,6.7h26.1c3.7,0,6.7-3,6.7-6.7
		C437.4,65.3,434.5,62.3,430.8,62.3z"/>
	<path class="st0" d="M430.8,114.8h-26.1c-3.7,0-6.7,3-6.7,6.7s3,6.7,6.7,6.7h26.1c3.7,0,6.7-3,6.7-6.7S434.5,114.8,430.8,114.8z"/>
	<path class="st0" d="M82.4,465.3H123c3.7,0,6.7-3,6.7-6.7v-51.7c0-3.7-3-6.7-6.7-6.7H82.4c-3.7,0-6.7,3-6.7,6.7v51.7
		C75.7,462.3,78.7,465.3,82.4,465.3z"/>
	<path class="st0" d="M254.1,160.5c-33.4,0-60.5,27.2-60.5,60.5v4.9h-4.5c-8.6,0-15.6,7-15.6,15.6v74.8c0,18.4,15,33.4,33.4,33.4
		h94.4c18.4,0,33.4-15,33.4-33.4v-74.8c0-8.6-7-15.6-15.6-15.6h-4.5V221C314.6,187.6,287.5,160.5,254.1,160.5L254.1,160.5z
		 M206.9,221c0-26,21.2-47.2,47.2-47.2s47.2,21.2,47.2,47.2v4.9h-13.4V221c0-18.6-15.2-33.8-33.8-33.8s-33.8,15.2-33.8,33.8v4.9
		h-13.4V221z M274.6,221v4.9h-40.9V221c0-11.3,9.2-20.4,20.4-20.4C265.4,200.5,274.6,209.7,274.6,221z M319.1,239.3
		c1.2,0,2.2,1,2.2,2.2v7.3h-73.5c-3.7,0-6.7,3-6.7,6.7c0,3.7,3,6.7,6.7,6.7h73.5v54.1c0,11-9,20-20,20h-94.4c-11,0-20-9-20-20v-54.1
		h29.8c3.7,0,6.7-3,6.7-6.7s-3-6.7-6.7-6.7h-29.8v-7.3c0-1.2,1-2.2,2.2-2.2L319.1,239.3L319.1,239.3z"/>
	<path class="st0" d="M247.9,313.7v6.8c0,3.7,3,6.7,6.7,6.7s6.7-3,6.7-6.7v-6.8c8.8-2.8,15.1-11.1,15.1-20.8
		c0-12-9.8-21.8-21.8-21.8c-12,0-21.8,9.8-21.8,21.8C232.7,302.6,239.1,310.9,247.9,313.7L247.9,313.7z M254.6,284.5
		c4.7,0,8.5,3.8,8.5,8.5s-3.8,8.5-8.5,8.5c-4.7,0-8.5-3.8-8.5-8.5S249.9,284.5,254.6,284.5z"/>
	<path class="st0" d="M453.2,235.5c-13.3,0-24.6,9.1-27.9,21.4h-35.5c-1.3-24.7-9.1-48.3-23-68.8c-2.1-3.1-6.2-3.9-9.3-1.8
		c-3.1,2.1-3.9,6.2-1.8,9.3c13.7,20.3,20.9,43.9,20.9,68.5c0,67.5-54.9,122.5-122.5,122.5S131.6,331.5,131.6,264
		s54.9-122.5,122.5-122.5c30.5,0,59.8,11.3,82.3,31.8c2.7,2.5,7,2.3,9.4-0.5c2.5-2.7,2.3-7-0.5-9.4c-16.7-15.2-36.8-25.9-58.4-31.2
		v-28.1c0-1.2,1-2.2,2.2-2.2h63.4v39.6c0,7.1,5.8,12.9,12.9,12.9h81.5c7.1,0,12.9-5.8,12.9-12.9V48.9c0-7.1-5.8-12.9-12.9-12.9
		h-81.5c-7.1,0-12.9,5.8-12.9,12.9v39.6h-63.4c-8.6,0-15.6,7-15.6,15.6v25.5c-6.4-0.9-13-1.4-19.6-1.4c-7,0-13.8,0.5-20.5,1.5v-25.6
		c0-8.6-7-15.6-15.6-15.6h-52.5v-37c0-8.6-7-15.6-15.6-15.6H55.5c-8.6,0-15.6,7-15.6,15.6v12.9c0,3.7,3,6.7,6.7,6.7s6.7-3,6.7-6.7
		V51.6c0-1.2,1-2.2,2.2-2.2h94.4c1.2,0,2.2,1,2.2,2.2v59.2H53.3V95.7c0-3.7-3-6.7-6.7-6.7s-6.7,3-6.7,6.7v15.2
		c-7.2,0.5-12.9,6.4-12.9,13.7c0,2.9,2.4,8.5,3.9,11c4.7,9.4,14.1,15.3,24.6,15.3H150c10.4,0,19.8-5.8,24.5-15.1
		c1.9-4.1,3.8-8.2,3.8-11.2c0-7.3-5.7-13.3-12.9-13.7v-9H218c1.2,0,2.2,1,2.2,2.2v28.3c-56.4,14.5-98.7,64.4-101.8,124.4H83.9
		c-3.3-12.3-14.6-21.4-27.9-21.4c-16,0-28.9,13-28.9,28.9s13,28.9,28.9,28.9c14,0,25.7-10,28.4-23.2h34.1
		c2.7,60.5,45.2,110.7,101.8,125.3v28.3c0,1.2-1,2.2-2.2,2.2h-61.6v-39.6c0-7.1-5.8-12.9-12.9-12.9H61.9c-7.1,0-12.9,5.8-12.9,12.9
		v92.6c0,7.1,5.8,12.9,12.9,12.9h81.5c7.1,0,12.9-5.8,12.9-12.9v-39.6H218c8.6,0,15.6-7,15.6-15.6V398c6.7,1,13.5,1.5,20.5,1.5
		c6.7,0,13.2-0.5,19.6-1.4v25.5c0,8.6,7,15.6,15.6,15.6h72.3v37c0,8.6,7,15.6,15.6,15.6h58.4c8.6,0,15.6-7,15.6-15.6v-23
		c0-3.7-3-6.7-6.7-6.7s-6.7,3-6.7,6.7v23c0,1.2-1,2.2-2.2,2.2h-58.4c-1.2,0-2.2-1-2.2-2.2v-87.3c0-1.2,1-2.2,2.2-2.2h58.4
		c1.2,0,2.2,1,2.2,2.2v30.7c0,3.7,3,6.7,6.7,6.7s6.7-3,6.7-6.7v-30.7c0-8.6-7-15.6-15.6-15.6h-58.4c-8.6,0-15.6,7-15.6,15.6v37
		h-72.3c-1.2,0-2.2-1-2.2-2.2v-28.1c57.1-14.3,100-64.8,102.7-125.5h35c2.7,13.2,14.4,23.2,28.4,23.2c16,0,28.9-13,28.9-28.9
		S469.1,235.5,453.2,235.5z M366.1,49.4h80.7v39.2h-80.7L366.1,49.4L366.1,49.4z M366.1,101.9h80.7v39.2h-80.7L366.1,101.9
		L366.1,101.9z M143,478.6H62.4v-91.7H143V478.6L143,478.6z"/>
	<circle class="st0" cx="382" cy="69" r="6.7"/>
	<circle class="st0" cx="382" cy="121.5" r="6.7"/>
	<circle class="st0" cx="406.4" cy="463.1" r="6.7"/>
</g>
</svg>
