<?xml version="1.0" encoding="utf-8"?>
<!-- Generator: Adobe Illustrator 22.0.0, SVG Export Plug-In . SVG Version: 6.00 Build 0)  -->
<svg version="1.1" id="Capa_1" xmlns="http://www.w3.org/2000/svg" xmlns:xlink="http://www.w3.org/1999/xlink" x="0px" y="0px"
	 viewBox="0 0 500 510" style="enable-background:new 0 0 500 510;" xml:space="preserve">
<style type="text/css">
	.st0{fill:none;}
	.st1{fill:#80ACFF;}
</style>
<polygon class="st0" points="185.7,68.7 315.3,68.7 315.3,68.7 315.3,24.4 185.7,24.4 "/>
<polygon class="st0" points="185.7,592.7 315.3,592.7 315.3,592.7 315.3,548.4 185.7,548.4 "/>
<g>
	<path class="st1" d="M191.6,283.8H73.3c-15.4,0-28,12.6-28,28V476c0,15.4,12.6,28,28,28h118.3c15.4,0,28-12.6,28-28V311.8
		C219.6,296.4,207.1,283.8,191.6,283.8L191.6,283.8z M207.2,476c0,8.6-7,15.6-15.6,15.6H73.3c-8.6,0-15.6-7-15.6-15.6V311.8
		c0-8.6,7-15.6,15.6-15.6h118.3c8.6,0,15.6,7,15.6,15.6V476z"/>
</g>
<g>
	<path class="st1" d="M159.1,242.6c2.1,0,4.1-1.1,5.3-3c1.8-2.9,0.8-6.7-2.1-8.5c-9-5.5-19.3-8.3-29.9-8.3
		c-10.5,0-20.9,2.9-29.9,8.3c-2.9,1.8-3.9,5.6-2.1,8.5c1.8,2.9,5.6,3.9,8.5,2.1c7.1-4.3,15.2-6.5,23.4-6.5s16.4,2.3,23.4,6.5
		C156.9,242.3,158,242.6,159.1,242.6z"/>
</g>
<g>
	<path class="st1" d="M91.7,224c1.1,0,2.2-0.3,3.2-0.9c11.3-6.9,24.3-10.5,37.6-10.5c13.3,0,26.3,3.6,37.6,10.5
		c2.9,1.8,6.7,0.8,8.5-2.1c1.8-2.9,0.8-6.7-2.1-8.5c-13.3-8-28.5-12.3-44-12.3s-30.8,4.3-44,12.3c-2.9,1.8-3.9,5.6-2.1,8.5
		C87.5,222.9,89.6,224,91.7,224z"/>
</g>
<g>
	<path class="st1" d="M432.2,188h-5.3V84.8c0-40.1-32.6-72.8-72.8-72.8c-40.1,0-72.8,32.6-72.8,72.8V188h-4.4
		c-10.2,0-18.6,8.3-18.6,18.6v35.9c0,3.4,2.8,6.2,6.2,6.2s6.2-2.8,6.2-6.2v-35.9c0-3.4,2.8-6.2,6.2-6.2h155.3c3.4,0,6.2,2.8,6.2,6.2
		v278.8c0,3.4-2.8,6.2-6.2,6.2h-34.8c-3.4,0-6.2,2.8-6.2,6.2s2.8,6.2,6.2,6.2h34.8c10.2,0,18.6-8.3,18.6-18.6V206.6
		C450.8,196.3,442.4,188,432.2,188L432.2,188z M293.7,84.8c0-33.3,27.1-60.4,60.4-60.4s60.4,27.1,60.4,60.4V188h-21.7V84.8
		c0-21.3-17.4-38.7-38.7-38.7c-21.3,0-38.7,17.4-38.7,38.7V188h-21.7V84.8z M380.4,188h-52.6V84.8c0-14.5,11.8-26.3,26.3-26.3
		c14.5,0,26.3,11.8,26.3,26.3V188z"/>
</g>
<g>
	<path class="st1" d="M355.3,491.6h-78.4c-3.4,0-6.2-2.8-6.2-6.2V284.6c0-3.4-2.8-6.2-6.2-6.2s-6.2,2.8-6.2,6.2v200.8
		c0,10.2,8.3,18.6,18.6,18.6h78.4c3.4,0,6.2-2.8,6.2-6.2S358.7,491.6,355.3,491.6z"/>
</g>
<g>
	<path class="st1" d="M344.1,451.7h-33c-6.8,0-12.4-5.6-12.4-12.4V250.8c0-6.8,5.6-12.4,12.4-12.4h33c6.8,0,12.4,5.6,12.4,12.4
		v188.5C356.5,446.2,351,451.7,344.1,451.7z"/>
</g>
<g>
	<ellipse class="st1" cx="389.3" cy="433" rx="9.7" ry="9.7"/>
</g>
<g>
	<circle class="st1" cx="389.3" cy="401.5" r="9.7"/>
</g>
</svg>
