<?xml version="1.0" encoding="utf-8"?>
<!-- Generator: Adobe Illustrator 22.0.0, SVG Export Plug-In . SVG Version: 6.00 Build 0)  -->
<svg version="1.1" id="Capa_1" xmlns="http://www.w3.org/2000/svg" xmlns:xlink="http://www.w3.org/1999/xlink" x="0px" y="0px"
	 viewBox="0 0 500 510" style="enable-background:new 0 0 500 510;" xml:space="preserve">
<style type="text/css">
	.st0{fill:#80ACFF;}
</style>
<g>
	<path class="st0" d="M53.8,233.2c0-27.4,5.5-54,16.5-78.9c1.6-3.5-0.1-7.7-3.6-9.2c-3.5-1.6-7.7,0.1-9.2,3.6
		c-11.7,26.7-17.7,55.2-17.7,84.5c0,57.3,22.7,111,63.8,151.1c2.2,2.2,3.2,7-0.7,10.3c-2,1.6-5.9,2.3-9.1-0.3
		c-43.9-42.8-68.1-100-68.1-161.1c0-60.8,24-117.9,67.5-160.6c1.7-1.7,5.9-2.7,9.1-0.3c2.4,1.9,4.1,6.5,0.7,10.3
		c-11.1,10.8-20.9,22.9-29.4,35.9c-2.1,3.2-1.2,7.6,2.1,9.7c3.2,2.1,7.6,1.2,9.7-2.1c7.9-12.1,17.1-23.4,27.4-33.5
		c8.3-7.7,8.5-24-2.1-31.5c-7.6-6.1-19.9-5.8-27.3,1.5C61,84.6,43.4,110.3,31,139.1c-12.8,29.8-19.3,61.4-19.3,94.1
		c0,32.8,6.5,64.5,19.4,94.4c12.5,28.9,30.3,54.7,52.9,76.7c7.1,6.8,18.2,8.1,27.2,1.5c9.4-6.7,11.5-22.6,2.1-31.6
		C75,336.8,53.8,286.7,53.8,233.2L53.8,233.2z"/>
	<path class="st0" d="M159.6,338.1c-30.4-26.5-47.9-64.8-47.9-105c0-39.9,17.3-78,47.4-104.5c9.2-7.7,9.8-24.5-1.2-32.4
		c-7.1-5.7-19.2-5.7-26.5,0.8c-39.2,34.5-61.7,84.1-61.7,136.1c0,52.4,22.7,102.2,62.3,136.7c6.8,5.7,17.8,7.3,26.5,0.8
		C168.5,363.5,169.8,346.8,159.6,338.1L159.6,338.1z M150.1,359.4c-1.9,1.5-5.3,2.2-8.9-0.1c-36.6-31.8-57.5-77.8-57.5-126.1
		c0-48,20.8-93.8,56.9-125.6c1.1-0.6,3.1-2.5,6.7-1.2c1.6,0.6,3,1.7,3.9,3.1c1.5,2.5,1.5,5.5-1.3,8.7c-33.1,29.1-52.1,71.1-52.1,115
		c0,44.2,19.2,86.4,52.7,115.5C152.7,351.2,154.4,354.9,150.1,359.4z"/>
	<path class="st0" d="M206.3,334.9c11.2-7.5,11.6-26.2-0.5-34.2c-22.6-15.2-36.2-40.4-36.2-67.6c0-26.9,13.3-52,35.6-67.2
		c11.2-7.1,12.1-25.4,0.7-33.8c-6.3-5.1-17.1-5.8-24.4-0.8c-20.1,13.7-35.5,32.8-44.7,55.1c-1.5,3.6,0.2,7.7,3.8,9.1
		c3.6,1.5,7.7-0.2,9.1-3.8c8.2-19.8,21.9-36.7,39.7-48.9c1.6-1.1,5.2-1.7,8.1,0.5c2.6,2,4.3,7.5-0.2,11
		c-26.2,17.8-41.8,47.3-41.8,78.8c0,31.8,15.8,61.4,42.4,79.2c2.8,1.9,4.6,7.2,0.2,11.1c-1.7,1.4-4.8,2.2-8.1,0.5
		c-30.4-20.4-48.5-54.3-48.5-90.8c0-3.9,0.2-7.8,0.6-11.6c0.4-3.8-2.4-7.3-6.2-7.7c-3.8-0.4-7.3,2.4-7.7,6.2
		c-0.5,4.3-0.7,8.7-0.7,13.1c0,41.1,20.4,79.4,54.7,102.4C188.8,339.8,198.4,340.6,206.3,334.9L206.3,334.9z"/>
	<path class="st0" d="M361.4,287.7c1.8-3.5,0.2-7.9-3.4-9.5c-3.5-1.6-7.6,0.1-9.3,3.5c-8.4,16.8-21,31.2-36.5,41.8
		c-3,2-7.2,1.4-9.6-1.8c-0.5-0.7-0.9-1.6-1.1-2.4c-0.6-3,0.5-5.8,2.8-7.4c26.1-17.8,41.7-47.2,41.7-78.7c0-31.3-15.4-60.7-41.3-78.5
		c-2.8-2-4.4-7.2-0.1-11c1.4-1.1,3.7-1.9,6.3-1.2c1,0.3,1.9,0.7,2.7,1.3c29.1,20.5,46.4,53.8,46.4,89.4c0,6.4-0.6,12.9-1.7,19.1
		c-0.7,3.8,1.9,7.4,5.7,8.1c3.8,0.7,7.4-1.9,8.1-5.7c1.3-7.1,1.9-14.3,1.9-21.6c0-40.5-19.9-78.4-53.3-101.5
		c-6.6-4.8-17.4-4.8-24.5,0.8c-10.8,7.6-11.2,25.9,0.6,33.7c22.1,15.2,35.3,40.2,35.3,67c0,26.9-13.3,52-35.6,67.2
		c-5.7,3.9-9,10-9.1,16.9c-0.1,5.5,2,10.9,5.8,14.9c6.8,6.9,17.8,8.9,26.9,2.9C337.8,323.1,352,306.7,361.4,287.7L361.4,287.7z"/>
	<path class="st0" d="M370.9,97.5c-6.8-6.2-18.8-6.9-26.6-0.8c-10,7-11.3,23.6-1.2,32.3c29.9,26.5,47,64.4,47,104.2
		c0,40-17.3,78.1-47.5,104.6c-9.2,7.7-9.8,24.5,1.2,32.4c6.9,5.3,18.5,6.2,26.5-0.8c39.3-34.5,61.9-84.1,61.9-136.3
		C432.1,181.4,409.8,131.9,370.9,97.5L370.9,97.5z M361,358.9c-1,0.9-2.8,1.6-4.9,1.5c-2.9-0.2-5.5-2.2-6.4-5
		c-0.6-1.8-0.3-3.8,1.1-5.8c0.5-0.7,1.1-1.3,1.7-1.8c32.8-29.1,51.5-70.8,51.5-114.5c0-43.8-18.9-85.6-51.7-114.7
		c-1.9-2.1-3.4-5-1.3-8.5c0.8-1.4,2-2.5,3.5-3.1c1.6-0.7,3.7-1.1,7.1,1.1c35.9,31.8,56.5,77.4,56.5,125.2
		C418.1,281.2,397.3,327.1,361,358.9L361,358.9z"/>
	<path class="st0" d="M418.7,63c-7.2-7.1-18.8-7.9-27-1.8c-9.6,6.6-12,22.4-2.5,31.7c37.9,37.4,58.8,87.2,58.8,140.2
		c0,53.2-21,103.2-59.1,140.6c-8.5,7.9-8.5,24.1,2.1,31.8c7.2,5.5,19.4,6,27.2-1.8c22.5-22,40.1-47.8,52.5-76.6
		c12.8-29.8,19.3-61.4,19.3-94.1C490,168.8,464.7,108.3,418.7,63L418.7,63z M408.4,393.8c-0.9,0.8-2.3,1.5-4,1.7
		c-3.6,0.4-7.1-2.1-7.7-5.7c-0.3-1.9,0.1-4.1,1.9-6.1c40.8-40.1,63.3-93.5,63.3-150.6c0-56.8-22.3-110.2-62.9-150.2
		c-2.2-2.3-3.2-7.4,1-10.5c2.7-2,6.4-1.8,8.8,0.5c43.3,42.7,67.1,99.6,67.1,160.2C476,294,452,351.1,408.4,393.8z"/>
	<path class="st0" d="M283.1,443.3h-6.5v-46.2c0-3.9-3.1-7-7-7s-7,3.1-7,7v46.2h-23.4v-153c3.8,0.8,7.7,1.2,11.7,1.2
		s7.9-0.4,11.7-1.2v73.8c0,3.9,3.1,7,7,7s7-3.1,7-7v-78.6c19.3-9.5,32.7-29.4,32.7-52.4c0-32.2-26.2-58.4-58.4-58.4
		c-32.2,0-58.4,26.2-58.4,58.4c0,23,13.3,42.9,32.7,52.4v157.8h-6.5c-14.2,0-25.7,11.5-25.7,25.7v21.5c0,6.4,5.2,11.7,11.7,11.7
		h92.5c6.4,0,11.7-5.2,11.7-11.7V469C308.8,454.8,297.3,443.3,283.1,443.3z"/>
</g>
</svg>
