<?xml version="1.0" encoding="utf-8"?>
<!-- Generator: Adobe Illustrator 22.0.0, SVG Export Plug-In . SVG Version: 6.00 Build 0)  -->
<svg version="1.1" id="Capa_1" xmlns="http://www.w3.org/2000/svg" xmlns:xlink="http://www.w3.org/1999/xlink" x="0px" y="0px"
	 viewBox="0 0 500 510" style="enable-background:new 0 0 500 510;" xml:space="preserve">
<style type="text/css">
	.st0{fill:none;}
	.st1{fill:#80ACFF;}
	.st2{fill:#FFFFFF;}
</style>
<polygon class="st0" points="185.7,68.7 315.3,68.7 315.3,68.7 315.3,24.4 185.7,24.4 "/>
<polygon class="st0" points="185.7,592.7 315.3,592.7 315.3,592.7 315.3,548.4 185.7,548.4 "/>
<path class="st1" d="M493,375.1c-3.4-16.9-18.4-29-35.8-29c-17.4,0-32.9,12.1-36.8,29H290.3c-3.4-14-14-24.7-28.1-28.1v-51.8h117.1
	c4.8,0,8.2-3.9,8.7-8.2v-28.5h44c4.8,0,8.7-3.9,8.7-8.7V92.6c0-4.8-3.9-8.7-8.7-8.7H75.5c-4.8,0-8.7,3.9-8.7,8.7v156.7
	c0,4.8,3.9,8.7,8.7,8.7h44v28.5c0,4.8,3.9,8.2,8.2,8.7h117.5V347c-14,3.4-24.7,14-28.1,28.1H86.7c-4.8-20.3-24.7-32.9-45-28.1
	c-20.3,4.8-32.9,24.7-28.1,45c4.8,20.3,24.7,32.9,45,28.1c14-3.4,25.2-14,28.1-28.1h130.1c4.8,20.3,24.7,32.9,45,28.1
	c14-3.4,25.2-14,28.1-28.1h130.1c4.8,20.3,24.7,32.9,45,28.1C485.2,415.2,497.8,395.4,493,375.1z M49.9,404.1
	c-11.6,0-20.8-9.2-20.8-20.8c0-11.6,9.2-20.8,20.8-20.8c11.6,0,20.8,9.2,20.8,20.8C70.7,394.9,61.5,404.1,49.9,404.1z M83.8,241.1
	V101.3h339.6v139.8H83.8z M136.5,278.3V258h234.6v20.3H136.5z M253.5,404.1c-11.6,0-20.8-9.2-20.8-20.8c0-11.6,9.2-20.8,20.8-20.8
	c11.6,0,20.8,9.2,20.8,20.8C274.3,394.9,265.1,404.1,253.5,404.1z M457.2,404.1c-11.6,0-20.8-9.2-20.8-20.8
	c0-11.6,9.2-20.8,20.8-20.8c11.6,0,20.8,9.2,20.8,20.8C477.5,394.9,468.3,404.1,457.2,404.1z"/>
<rect x="136.5" y="258" class="st2" width="234.6" height="20.3"/>
<path class="st1" d="M253.5,362.5c-11.6,0-20.8,9.2-20.8,20.8c0,11.6,9.2,20.8,20.8,20.8c11.6,0,20.8-9.2,20.8-20.8
	C274.3,371.7,265.1,362.5,253.5,362.5z"/>
<polygon class="st1" points="186.8,188.8 167.9,134.2 152,134.2 178.1,207.7 194,207.7 220.6,134.2 204.7,134.2 "/>
<path class="st1" d="M258.9,134.2c-5.8,0-31,0-31,0v73.5h15v-27.6h18.4c12.1,0,23.2-9.2,23.2-23.2
	C284.5,149.7,280.1,134.2,258.9,134.2z M257.9,167.5h-15v-20.8h15.5c8.2,0,10.6,5.8,10.6,10.2C269,162.2,266.6,167.5,257.9,167.5z"
	/>
<polygon class="st1" points="341.6,183.5 311.1,134.2 296.6,134.2 296.6,207.7 310.6,207.7 310.6,159.8 340.1,207.7 355.1,207.7 
	355.1,134.2 341.6,134.2 "/>
</svg>
