<?xml version="1.0" encoding="utf-8"?>
<!-- Generator: Adobe Illustrator 22.0.0, SVG Export Plug-In . SVG Version: 6.00 Build 0)  -->
<svg version="1.1" id="Capa_1" xmlns="http://www.w3.org/2000/svg" xmlns:xlink="http://www.w3.org/1999/xlink" x="0px" y="0px"
	 viewBox="0 0 500 510" style="enable-background:new 0 0 500 510;" xml:space="preserve">
<style type="text/css">
	.st0{fill:#80ACFF;}
	.st1{opacity:0.4;}
	.st2{opacity:0.6;}
	.st3{fill:none;}
</style>
<g>
	<path class="st0" d="M660.1,156.1h-4.7v15.4h4.7V156.1L660.1,156.1z M660.1,180.1h-4.7v15.4h4.7V180.1L660.1,180.1z M660.1,204.2
		h-4.7v15.4h4.7V204.2L660.1,204.2z M660.1,228.2h-4.7v15.4h4.7V228.2L660.1,228.2z M660.1,252.3h-4.7v15.4h4.7V252.3L660.1,252.3z
		 M660.1,276.3h-4.7v15.4h4.7V276.3L660.1,276.3z M660.1,300.4h-4.7v15.4h4.7V300.4L660.1,300.4z M660.1,324.5h-4.7v15.4h4.7V324.5
		L660.1,324.5z M660.1,348.5h-4.7v15.4h4.7V348.5L660.1,348.5z M660.1,372.6h-4.7v15.4h4.7V372.6L660.1,372.6z M660.1,396.6h-4.7
		V412h4.7V396.6L660.1,396.6z M660.1,420.7h-4.7v15.4h4.7V420.7L660.1,420.7z M660.1,444.7h-4.7v15.4h4.7V444.7L660.1,444.7z
		 M660.1,468.8h-4.7v15.4h4.7V468.8L660.1,468.8z M660.1,492.9h-4.7v15.4h4.7V492.9L660.1,492.9z"/>
</g>
<g>
	<g>
		<g>
			<g>
				<g class="st1">
					<g>
						<g>
							<path class="st0" d="M746.9,191.8l8.1,8.4c1.6,1.6,4.3,1.4,5.5-0.4c14.3-21.3,21.7-46.6,20.9-72.9
								C779.1,58.5,721.7,4.7,653.3,7c-4.7,0.1-9.4,0.6-14.1,1.3C582.4,16.4,538,64,533.7,121.3c-2.3,31.2,6.9,61.2,25.3,85.1
								c1.4,1.8,4.1,1.8,5.5,0.1l7.5-8.9c1.1-1.3,1.1-3.1,0.1-4.4c-13-17.8-20.3-39.3-20.4-61.9C551.6,76.4,594.2,30,648.9,25.7
								c60.4-5,112.1,41.9,114,101.8c0.7,21.4-5.1,42.2-16.4,60C745.6,188.8,745.7,190.6,746.9,191.8z"/>
						</g>
					</g>
				</g>
				<g class="st2">
					<g>
						<g>
							<path class="st0" d="M717.8,159.7l9.6,10c2,2.1,5.4,1.5,6.6-1.1c5.5-11.8,8.2-24.7,7.7-38C740.4,91,711.1,57.3,672,50.4
								c-11.4-2-23.3-1.6-34.6,1.1c-38.5,9.4-65.6,45-64.3,84.7c0.4,13.3,3.9,26,10.2,37.4c1.4,2.5,4.8,2.9,6.7,0.7l8.9-10.6
								c1-1.2,1.2-2.8,0.6-4.3c-3.4-7.5-5.3-15.6-5.6-23.8c-0.9-26.5,15.1-51,39.8-61c13.8-5.5,29.4-6.1,43.5-1.4
								c25.3,8.3,42.8,31.7,43.7,58.3c0.3,8.2-1.1,16.4-4,24.1C716.4,157,716.7,158.6,717.8,159.7z"/>
						</g>
					</g>
				</g>
			</g>
		</g>
	</g>
	<path class="st0" d="M730.8,238.4l-1.1-34.6c-0.1-2.4-0.9-10.2-7.6-12.4c-3.2-1-6.2-0.5-8.8,0.7l-0.6,0l-0.2,0
		c-1.3-4.3-4.3-7-8.6-7.6c-5.2-0.7-8.7,0.9-10.8,2.6c-2.3-4.5-6.6-6.8-12.4-6.1c-4.3,0.5-7.5,2.7-9.7,5.6l-1-29.5
		c-0.2-5.8-0.6-11.6-0.6-17.4c-0.7-6.1-5.9-10.8-12.2-10.8c-3.6,0-7.1,1.8-9.5,4.4c-2.5,2.8-2.7,6.3-2.7,9.8l0,14.2l0.1,39.2
		c-0.2,1.2,0.5,28.5,0.5,28.5c-2.4-2.3-5-4.9-7.4-7.4c-5.6-5.8-15.6-9.5-22.2-10.1c-3.5-0.3-6.1,0.3-7.8,1.7
		c-0.5,0.4-1.1,0.9-1.6,1.5c-3.3,3.4-5.7,8.9-3.2,12.8c1.1,1.7,2.9,2.8,4.8,3.9c2.5,1.5,6.8,3.1,10,7c5.5,6.5,18.1,21.2,25.9,28.9
		c1.6,0.9,5,4.1,6.6,4.9c4.8,2.9,8.8,5.6,10.1,7.1c1.1,1.2,7.4,4.1,7.4,4.1c5.1,3,14.3,5.7,24.8,5.3c10.5-0.3,20,0,26.8-6.4l0.4,0
		l0.2-0.5c6.9-6.8,11.1-16,10.8-26C731.1,249.3,730.8,240.1,730.8,238.4z"/>
	<path class="st0" d="M656.5,102.2c-16.2,0.5-28.8,14.1-28.3,30.2c0.3,8.7,3.4,16.4,9.2,21.5v-12.3c0-4.7,1.6-9.1,4.4-12.5
		c3.7-4.5,9.3-7.5,15.5-7.5c9.4,0,17.2,6.5,19.4,15.3c0.4,1.5,0.6,3.1,0.6,4.7l0.1,12.8c6.6-5.5,9.7-14.3,9.4-23.9
		C686.2,114.4,672.7,101.7,656.5,102.2z"/>
</g>
<path class="st0" d="M269.8,96.7c0-4.6-3.7-8.3-8.3-8.3h-8.3V105h8.3C266,105,269.8,101.3,269.8,96.7z"/>
<g>
	<path class="st3" d="M353,71.7c-2.2,0-4.3,0.9-5.9,2.4s-2.4,3.7-2.4,5.9v32.3l-26.5-37.1c-2.1-2.9-5.9-4.2-9.3-3.1
		c-3.4,1.1-5.8,4.3-5.8,7.9v58.2c0,4.6,3.7,8.3,8.3,8.3c4.6,0,8.3-3.7,8.3-8.3V106l26.5,37.1c2.1,2.9,5.9,4.2,9.3,3.1
		c3.4-1.1,5.8-4.3,5.8-7.9V80.1c0-2.2-0.9-4.3-2.4-5.9C357.3,72.6,355.2,71.7,353,71.7z"/>
	<path class="st3" d="M261.4,71.8h-16.6c-2.2,0-4.3,0.9-5.9,2.4s-2.4,3.7-2.4,5.9v58.2c0,4.6,3.7,8.3,8.3,8.3c4.6,0,8.3-3.7,8.3-8.3
		v-16.6h8.3c13.8,0,25-11.2,25-25S275.2,71.8,261.4,71.8z"/>
	<path class="st3" d="M214.8,72.4c-2-0.9-4.3-0.9-6.4-0.1c-2.1,0.8-3.7,2.4-4.5,4.5l-17.3,40.4l-17.3-40.4c-1.2-2.7-3.7-4.6-6.7-5
		c-3-0.4-5.9,0.9-7.7,3.3c-1.8,2.4-2.2,5.5-1,8.3l25,58.2c1.3,3.1,4.3,5,7.6,5c3.3,0,6.3-2,7.6-5l25-58.2
		C221,79.1,219,74.2,214.8,72.4z"/>
	<path class="st0" d="M103.4,55.1v108.2h316.1h0V55.1H103.4z M219.2,83.3l-25,58.2c-1.3,3.1-4.3,5-7.6,5c-3.3,0-6.3-2-7.6-5
		l-25-58.2c-1.2-2.7-0.8-5.9,1-8.3c1.8-2.4,4.7-3.6,7.7-3.3c3,0.4,5.5,2.3,6.7,5l17.3,40.4l17.3-40.4c0.9-2,2.5-3.6,4.5-4.5
		c2.1-0.8,4.3-0.8,6.4,0.1C219,74.2,221,79.1,219.2,83.3z M261.4,121.7h-8.3v16.6c0,4.6-3.7,8.3-8.3,8.3c-4.6,0-8.3-3.7-8.3-8.3
		V80.1c0-2.2,0.9-4.3,2.4-5.9s3.7-2.4,5.9-2.4h16.6c13.8,0,25,11.2,25,25S275.2,121.7,261.4,121.7z M361.3,138.3
		c0,3.6-2.3,6.8-5.8,7.9c-3.4,1.1-7.2-0.1-9.3-3.1L319.7,106v32.3c0,4.6-3.7,8.3-8.3,8.3c-4.6,0-8.3-3.7-8.3-8.3V80.1
		c0-3.6,2.3-6.8,5.8-7.9c3.4-1.1,7.2,0.1,9.3,3.1l26.5,37.1V80.1c0-2.2,0.9-4.3,2.4-5.9s3.7-2.4,5.9-2.4c2.2,0,4.3,0.9,5.9,2.4
		c1.6,1.6,2.4,3.7,2.4,5.9V138.3z"/>
</g>
<polygon class="st3" points="185.7,68.7 315.3,68.7 315.3,68.7 315.3,24.4 185.7,24.4 "/>
<path class="st3" d="M103.4,302.7c5.3,21.3,35.4,116.1,158.1,150.4c123-34.3,152.9-129.1,158.1-150.3h0V179.9H103.4V302.7z
	 M186.6,296.4c0-13.8,11.2-24.9,25-25v-33.3c0-23,18.6-41.6,41.6-41.6h16.6c23,0,41.6,18.6,41.6,41.6v33.3c13.8,0,24.9,11.2,25,25
	v83.2c0,13.8-11.2,24.9-25,25h-99.8c-13.8,0-24.9-11.2-25-25V296.4z"/>
<path class="st0" d="M444.5,5.2H78.4c-13.8,0-24.9,11.2-25,25v277.1c0,0.5,0,1,0.1,1.5c0.3,1.5,29.6,152.7,205.9,195.4
	c1.3,0.3,2.6,0.3,3.9,0C439.7,461.4,469,310.2,469.3,308.7c0.1-0.5,0.1-1,0.1-1.5V30.2C469.4,16.4,458.3,5.2,444.5,5.2z
	 M452.8,306.4c-2.2,10.5-33.1,141.7-191.3,181.1c-159.5-39.7-189-169.1-191.3-181V30.2c0-4.6,3.7-8.3,8.3-8.3h366.1
	c4.6,0,8.3,3.7,8.3,8.3V306.4z"/>
<path class="st0" d="M444.5,21.8H78.4c-4.6,0-8.3,3.7-8.3,8.3v276.3c2.4,12,31.9,141.4,191.3,181
	c158.3-39.4,189.1-170.6,191.3-181.1V30.2C452.8,25.6,449.1,21.8,444.5,21.8z M436.2,303.7c0,0.6-0.1,1.3-0.2,1.9
	c-4.9,21-36.4,127.3-172.3,164.1c-1.4,0.4-2.9,0.4-4.3,0C123.8,433.1,92,326.6,87,305.6c-0.1-0.6-0.2-1.3-0.2-1.9V46.8
	c0-2.2,0.9-4.3,2.4-5.9c1.6-1.6,3.7-2.4,5.9-2.4h332.8c2.2,0,4.3,0.9,5.9,2.4s2.4,3.7,2.4,5.9V303.7z"/>
<path class="st0" d="M211.5,404.5h99.8c13.8,0,24.9-11.2,25-25v-83.2c0-13.8-11.2-24.9-25-25v-33.3c0-23-18.6-41.6-41.6-41.6h-16.6
	c-23,0-41.6,18.6-41.6,41.6v33.3c-13.8,0-24.9,11.2-25,25v83.2C186.6,393.4,197.8,404.5,211.5,404.5z M228.2,238.1
	c0-13.8,11.2-24.9,25-25h16.6c13.8,0,24.9,11.2,25,25v33.3h-66.6V238.1z M203.2,296.4c0-4.6,3.7-8.3,8.3-8.3h99.8
	c4.6,0,8.3,3.7,8.3,8.3v83.2c0,4.6-3.7,8.3-8.3,8.3h-99.8c-4.6,0-8.3-3.7-8.3-8.3V296.4z"/>
<path class="st0" d="M286,325.4c-2.1-12-12.5-20.7-24.6-20.7c-12.1,0-22.5,8.7-24.6,20.7c-2.1,12,4.8,23.7,16.3,27.7v9.9
	c0,4.6,3.7,8.3,8.3,8.3c4.6,0,8.3-3.7,8.3-8.3v-9.9C281.2,349.1,288.1,337.3,286,325.4z M261.4,338c-4.6,0-8.3-3.7-8.3-8.3
	c0-4.6,3.7-8.3,8.3-8.3c4.6,0,8.3,3.7,8.3,8.3C269.8,334.3,266,338,261.4,338z"/>
<g>
	<path class="st0" d="M573.4,251.6h-3.7v12.2h3.7V251.6L573.4,251.6z M573.4,270.7h-3.7v12.2h3.7V270.7L573.4,270.7z M573.4,289.8
		h-3.7V302h3.7V289.8L573.4,289.8z M573.4,308.9h-3.7v12.2h3.7V308.9L573.4,308.9z M573.4,328h-3.7v12.2h3.7V328L573.4,328z
		 M573.4,347.1h-3.7v12.2h3.7V347.1L573.4,347.1z M573.4,366.2h-3.7v12.2h3.7V366.2L573.4,366.2z M573.4,385.3h-3.7v12.2h3.7V385.3
		L573.4,385.3z M573.4,404.4h-3.7v12.2h3.7V404.4L573.4,404.4z M573.4,423.5h-3.7v12.2h3.7V423.5L573.4,423.5z M573.4,442.6h-3.7
		v12.2h3.7V442.6L573.4,442.6z M573.4,461.7h-3.7v12.2h3.7V461.7L573.4,461.7z M573.4,480.8h-3.7V493h3.7V480.8L573.4,480.8z
		 M573.4,499.9h-3.7v12.2h3.7V499.9L573.4,499.9z M573.4,519h-3.7v12.2h3.7V519L573.4,519z"/>
</g>
</svg>
